<svg xmlns="http://www.w3.org/2000/svg" version="1.1" xmlns:xlink="http://www.w3.org/1999/xlink" xmlns:svgjs="http://svgjs.com/svgjs" width="500" height="500"><svg version="1.1" xmlns="http://www.w3.org/2000/svg" xmlns:xlink="http://www.w3.org/1999/xlink" x="0px" y="0px" viewBox="0 0 500 500" style="enable-background:new 0 0 500 500;" xml:space="preserve">
<style type="text/css">
	.st0{fill:#E62E2D;}
	.st1{fill:#FFFFFF;}
</style>
<g id="SvgjsG1001">
	<polygon class="st0" points="439.58,359.45 439.58,140.55 250,31.09 60.42,140.55 60.42,359.45 250,468.91 	"></polygon>
</g>
<g id="SvgjsG1000">
	<g>
		<path class="st1" d="M263.09,286.6c0,7.15,0.84,12.47,2.52,16.39c2.53,5.45,7.15,7.6,14.3,6.37c6.31-1.09,14.72-5.06,23.55-14.16
			c4.21-4.09,8.84-4.47,10.52-0.55l18.08,35.16c1.68,3.08,0.42,7.08-2.94,10.18c-15.56,14.04-40.38,26.31-67.3,30.95
			c-24.4,4.21-40.38-0.61-50.48-10.22c-12.62-12.55-16.4-32.93-16.4-53.12v-70.24l-20.19,3.48c-4.21,0.73-7.57-2.06-7.57-6.26
			v-38.28c0-4.21,3.36-8.15,7.57-8.88l20.19-3.48v-38.28c0-4.21,3.36-8.15,7.57-8.88l53-9.14c4.21-0.73,7.58,2.06,7.58,6.27v38.28
			l46.26-7.98c4.21-0.73,7.58,2.06,7.58,6.27v38.28c0,4.2-3.37,8.15-7.58,8.88l-46.26,7.98V286.6z"></path>
	</g>
</g>
</svg><style>@media (prefers-color-scheme: light) { :root { filter: none; } }
</style></svg>