<?xml version="1.0" encoding="utf-8"?>
<!-- Generator: Adobe Illustrator 26.0.1, SVG Export Plug-In . SVG Version: 6.00 Build 0)  -->
<svg version="1.1" xmlns="http://www.w3.org/2000/svg" xmlns:xlink="http://www.w3.org/1999/xlink" x="0px" y="0px"
	 viewBox="0 0 500 500" style="enable-background:new 0 0 500 500;" xml:space="preserve">
<style type="text/css">
	.st0{fill:#E62E2D;}
	.st1{fill:#FFFFFF;}
</style>
<g id="Hintergrund">
	<polygon class="st0" points="439.58,359.45 439.58,140.55 250,31.09 60.42,140.55 60.42,359.45 250,468.91 	"/>
</g>
<g id="Text">
	<g>
		<path class="st1" d="M129.28,279.35c0,3.34,0.39,5.83,1.18,7.66c1.18,2.55,3.34,3.55,6.68,2.97c2.95-0.51,6.88-2.36,11-6.61
			c1.97-1.91,4.13-2.09,4.91-0.26l8.45,16.42c0.79,1.44,0.2,3.31-1.37,4.76c-7.27,6.56-18.86,12.29-31.43,14.46
			c-11.4,1.96-18.86-0.29-23.58-4.78c-5.89-5.86-7.66-15.38-7.66-24.81v-32.81l-9.43,1.63c-1.97,0.34-3.54-0.96-3.54-2.93v-17.88
			c0-1.97,1.57-3.81,3.54-4.15l9.43-1.63v-17.88c0-1.97,1.57-3.81,3.54-4.15l24.75-4.27c1.97-0.34,3.54,0.96,3.54,2.93v17.88
			l21.61-3.73c1.97-0.34,3.54,0.96,3.54,2.93v17.88c0,1.96-1.57,3.81-3.54,4.15l-21.61,3.73V279.35z"/>
		<path class="st1" d="M206.29,217.93c1.57-1.65,3.54-3.16,5.5-4.29c4.52-2.94,9.43-4.97,14.93-5.91
			c5.31-0.91,10.61-1.04,15.52-0.12c5.11,1.08,9.04,3.16,11.79,5.63c3.14-3.1,7.27-6.56,12.18-9.37c4.52-2.55,10.02-4.67,16.5-5.79
			c9.63-1.66,19.06-0.73,25.93,4.57c6.09,4.45,10.02,12.81,10.02,25.98v51.87c0,1.96-1.57,3.81-3.54,4.15l-24.75,4.27
			c-1.97,0.34-3.54-0.96-3.54-2.93v-44.8c0-4.52-0.39-10.15-2.75-13.28c-1.37-1.92-3.93-3.64-9.04-2.76
			c-5.31,0.91-8.06,4.34-9.63,7.75c-2.16,4.89-2.75,11.08-2.75,17.96v39.3c0,1.96-1.57,3.81-3.54,4.15l-24.76,4.27
			c-1.96,0.34-3.54-0.96-3.54-2.93v-44.8c0-4.52-0.39-10.15-2.75-13.28c-1.37-1.92-3.93-3.64-9.04-2.76
			c-5.31,0.91-8.06,4.34-9.63,7.75c-1.96,4.27-2.75,9.32-2.75,15.41v41.85c0,1.96-1.57,3.81-3.54,4.15l-24.76,4.27
			c-1.96,0.34-3.54-0.96-3.54-2.93v-83.7c0-1.97,1.57-3.81,3.54-4.15l23.77-4.1c1.96-0.34,3.54,0.96,3.54,2.93v1.77L206.29,217.93z"
			/>
		<path class="st1" d="M350.48,217.04c-2.36,1.59-4.12,1.89-5.11-0.3l-6.88-13.94c-0.98-1.79-0.79-3.01,1.37-4.75
			c8.84-7.03,22.79-13.95,37.92-16.56c9.24-1.59,21.61-1.96,29.67,5.3c5.11,4.62,8.06,11.19,8.06,22.38v54.62
			c0,1.96-1.57,3.81-3.54,4.15l-21.42,3.69c-1.96,0.34-3.54-0.96-3.54-2.93v-0.79l-0.79,0.14c-7.66,6.43-14.15,8.73-22.6,10.18
			c-8.25,1.42-15.32-0.11-20.43-4.14c-5.11-4.03-8.25-10.76-8.25-19.4c0-11.4,6.48-19.39,15.52-25.27
			c10.02-6.44,23.18-10.48,33.2-13.19v-1.37c0-3.14-0.39-5.63-1.77-7.16c-1.38-1.73-4.32-2.4-8.25-1.72
			C365.22,207.43,356.97,212.39,350.48,217.04z M383.69,249.43v-12.97c-1.77,0.3-7.86,1.75-11.39,3.54
			c-3.93,1.86-7.07,4.76-7.07,8.49c0,2.36,0.79,3.99,2.36,4.9c1.57,0.91,3.73,1.12,6.48,0.65
			C376.81,253.57,380.35,252.17,383.69,249.43z"/>
	</g>
</g>
</svg>
