<svg xmlns="http://www.w3.org/2000/svg" xmlns:xlink="http://www.w3.org/1999/xlink" viewBox="0 0 2857.31 3329.04"><defs><style>.cls-1{fill:none;}.cls-2{isolation:isolate;}.cls-3{fill:#f4f7fa;}.cls-4{clip-path:url(#clip-path);}.cls-5{fill:url(#linear-gradient);}.cls-6{clip-path:url(#clip-path-2);}.cls-42,.cls-57,.cls-7{mix-blend-mode:soft-light;}.cls-7{opacity:0.8;}.cls-8{fill:#fcfdfe;}.cls-9{clip-path:url(#clip-path-3);}.cls-10{fill:url(#linear-gradient-2);}.cls-11{fill:url(#linear-gradient-3);}.cls-12{fill:#26264f;}.cls-13{fill:url(#linear-gradient-4);}.cls-14{fill:url(#linear-gradient-5);}.cls-15{fill:url(#linear-gradient-6);}.cls-16{fill:url(#linear-gradient-7);}.cls-17{fill:url(#linear-gradient-8);}.cls-18{fill:url(#linear-gradient-9);}.cls-19{fill:url(#linear-gradient-10);}.cls-20,.cls-30,.cls-43,.cls-52{mix-blend-mode:multiply;opacity:0.3;}.cls-20{fill:url(#linear-gradient-11);}.cls-21{fill:url(#linear-gradient-12);}.cls-22{fill:url(#linear-gradient-13);}.cls-23{fill:url(#linear-gradient-14);}.cls-24{fill:url(#linear-gradient-15);}.cls-25{fill:url(#linear-gradient-16);}.cls-26{fill:url(#linear-gradient-17);}.cls-27{fill:url(#linear-gradient-18);}.cls-28{fill:url(#linear-gradient-19);}.cls-29{fill:url(#linear-gradient-20);}.cls-30{fill:url(#linear-gradient-21);}.cls-31{fill:#d8dee8;}.cls-32{fill:url(#linear-gradient-22);}.cls-33{fill:url(#linear-gradient-23);}.cls-34{fill:url(#linear-gradient-24);}.cls-35{fill:url(#linear-gradient-25);}.cls-36{fill:url(#linear-gradient-26);}.cls-37{fill:url(#linear-gradient-27);}.cls-38{fill:url(#linear-gradient-28);}.cls-39{fill:url(#linear-gradient-29);}.cls-40{fill:url(#linear-gradient-30);}.cls-41{fill:url(#linear-gradient-31);}.cls-42,.cls-56,.cls-57{fill:#fff;}.cls-42{opacity:0.5;}.cls-43{fill:url(#linear-gradient-32);}.cls-44{fill:url(#linear-gradient-33);}.cls-45{fill:url(#linear-gradient-34);}.cls-46{fill:url(#linear-gradient-35);}.cls-47{fill:url(#linear-gradient-36);}.cls-48{fill:url(#linear-gradient-37);}.cls-49{fill:url(#linear-gradient-38);}.cls-50{fill:url(#linear-gradient-39);}.cls-51{fill:url(#linear-gradient-40);}.cls-52{fill:url(#linear-gradient-41);}.cls-53{fill:url(#linear-gradient-42);}.cls-54{fill:url(#linear-gradient-43);}.cls-55{fill:url(#linear-gradient-44);}.cls-57{opacity:0.6;}</style><clipPath id="clip-path" transform="translate(-494.77 -417.58)"><rect id="SVGID" class="cls-1" x="1608.95" y="1350.35" width="1695.29" height="1864.1"/></clipPath><linearGradient id="linear-gradient" x1="-4477.58" y1="-3209.65" x2="-3903.06" y2="463.22" gradientTransform="matrix(-0.58, -0.81, -0.81, 0.58, -1862.42, 659.31)" gradientUnits="userSpaceOnUse"><stop offset="0" stop-color="#e38ddd"/><stop offset="1" stop-color="#9571f6"/></linearGradient><clipPath id="clip-path-2" transform="translate(-494.77 -417.58)"><path id="SVGID-2" data-name="SVGID" class="cls-1" d="M1640,3060.57c.16,144.56-5.63,291.66-6.26,437.23,76.17,31.65,166.54,67,215-23.55,67.32-125.92,316.12-102.35,426.59-69.55,136.73,40.61,440.43,100.9,440-108.83-.34-174.6-69.78-282,139.25-324.67s323.85-156.81,295-349.95c-30.35-203.26,218.08-385,85.13-551.53C3003,1779.5,2616.85,2217,2546.13,2502s-203.64,175.43-400.69,172.26c-269-4.32-133.7,289.1-259,368.91C1788.22,3105.72,1737.63,3072.12,1640,3060.57Z"/></clipPath><clipPath id="clip-path-3" transform="translate(-494.77 -417.58)"><path id="SVGID-3" data-name="SVGID" class="cls-1" d="M2270.16,3733q-158.65-23.32-316.91-53.95c-1.72,1.55-36.39-228.36,72.82-348.93,216-233.59,70.5-443.22,29-567.44-66.4-175.17-32.37-388.07,160.56-348.19,188,34.34,216.47-352.61,184-650.71-27.69-145.09,109.21-321.13,245.82-361.36,139.45-44.57,278.63,46.66,321.28,335.86,64.56,334.85-179.81,536.78-270.3,704.66-89,164.8,118.09,298.15-48.62,444.17-140.23,129.75-317,223-252.31,386C2462,3434.23,2446.05,3566,2270.16,3733Z"/></clipPath><linearGradient id="linear-gradient-2" x1="6.76" y1="-757.66" x2="-752.7" y2="1400.81" gradientTransform="matrix(-0.87, -0.5, -0.5, 0.87, 2274.71, 2110.01)" gradientUnits="userSpaceOnUse"><stop offset="0" stop-color="#ffc444"/><stop offset="1" stop-color="#f36f56"/></linearGradient><linearGradient id="linear-gradient-3" x1="2830.07" y1="878.32" x2="2141.73" y2="844.47" gradientTransform="matrix(1, 0, 0, 1, 0, 0)" xlink:href="#linear-gradient-2"/><linearGradient id="linear-gradient-4" x1="787.09" y1="1844.77" x2="810.67" y2="1916.75" gradientTransform="translate(3455.76 -448.15) rotate(63.64)" xlink:href="#linear-gradient-2"/><linearGradient id="linear-gradient-5" x1="493.94" y1="2627.86" x2="771.87" y2="1985.67" gradientTransform="translate(3455.76 -448.15) rotate(63.64)" gradientUnits="userSpaceOnUse"><stop offset="0" stop-color="#ff9085"/><stop offset="1" stop-color="#fb6fbb"/></linearGradient><linearGradient id="linear-gradient-6" x1="929.99" y1="1987.83" x2="985.52" y2="1987.83" gradientTransform="matrix(-1, 0.09, 0.09, 1, 2456.55, -160.45)" gradientUnits="userSpaceOnUse"><stop offset="0" stop-color="#444b8c"/><stop offset="1" stop-color="#26264f"/></linearGradient><linearGradient id="linear-gradient-7" x1="499.3" y1="1935.76" x2="523.67" y2="1885.33" gradientTransform="matrix(-1, 0.07, 0.07, 1, 2040.62, -60.67)" xlink:href="#linear-gradient-2"/><linearGradient id="linear-gradient-8" x1="516.08" y1="2044.83" x2="575.08" y2="2044.83" gradientTransform="matrix(-0.98, 0.21, 0.21, 0.98, 1968.05, -210.66)" xlink:href="#linear-gradient-6"/><linearGradient id="linear-gradient-9" x1="404.48" y1="1995.47" x2="429.36" y2="1943.98" gradientTransform="matrix(-0.99, 0.15, 0.15, 0.99, 1974.58, -128.67)" xlink:href="#linear-gradient-2"/><linearGradient id="linear-gradient-10" x1="2217.28" y1="1703.8" x2="2059.92" y2="1349.06" gradientTransform="translate(-237.58 -19.3) rotate(3.06)" gradientUnits="userSpaceOnUse"><stop offset="0" stop-color="#311944"/><stop offset="1" stop-color="#893976"/></linearGradient><linearGradient id="linear-gradient-11" x1="2192.87" y1="1714.62" x2="2035.51" y2="1359.89" xlink:href="#linear-gradient-10"/><linearGradient id="linear-gradient-12" x1="1833.51" y1="1858.67" x2="1676.14" y2="1503.93" gradientTransform="translate(-160.89 92.99) rotate(-3.98)" xlink:href="#linear-gradient-10"/><linearGradient id="linear-gradient-13" x1="1585.75" y1="1411.06" x2="1826.36" y2="855.1" gradientTransform="matrix(1, 0, 0, 1, 0, 0)" xlink:href="#linear-gradient-5"/><linearGradient id="linear-gradient-14" x1="1895.73" y1="443.84" x2="1901.92" y2="278.86" gradientTransform="translate(171.03 -183) rotate(26.56)" xlink:href="#linear-gradient-2"/><linearGradient id="linear-gradient-15" x1="75.1" y1="769.35" x2="33.11" y2="662.69" gradientTransform="matrix(-1, -0.05, -0.05, 1, 1789.58, 252.48)" gradientUnits="userSpaceOnUse"><stop offset="0" stop-color="#311944"/><stop offset="1" stop-color="#6b3976"/></linearGradient><linearGradient id="linear-gradient-16" x1="1427.32" y1="730.72" x2="1425.39" y2="886.32" gradientTransform="matrix(1, -0.01, 0.01, 1, 281.35, 228.06)" xlink:href="#linear-gradient-2"/><linearGradient id="linear-gradient-17" x1="62.27" y1="774.46" x2="20.24" y2="667.69" xlink:href="#linear-gradient-15"/><linearGradient id="linear-gradient-18" x1="21.13" y1="710.13" x2="23.32" y2="729.62" gradientTransform="matrix(-1, -0.05, -0.05, 1, 1789.58, 252.48)" gradientUnits="userSpaceOnUse"><stop offset="0" stop-color="#ffc444"/><stop offset="1" stop-color="#f36f56"/></linearGradient><linearGradient id="linear-gradient-19" x1="1557.95" y1="1295.67" x2="1569.12" y2="1329.76" gradientTransform="matrix(1, 0, 0, 1, 0, 0)" xlink:href="#linear-gradient-2"/><linearGradient id="linear-gradient-20" x1="1401.37" y1="1331.26" x2="1641.98" y2="775.31" gradientTransform="matrix(1, 0, 0, 1, 0, 0)" xlink:href="#linear-gradient-5"/><linearGradient id="linear-gradient-21" x1="1629.97" y1="1430.2" x2="1870.58" y2="874.24" gradientTransform="matrix(1, 0, 0, 1, 0, 0)" xlink:href="#linear-gradient-5"/><linearGradient id="linear-gradient-22" x1="2565.68" y1="2114.05" x2="3370.62" y2="2122.85" gradientTransform="translate(-1675.05)" gradientUnits="userSpaceOnUse"><stop offset="0" stop-color="#aa80f9"/><stop offset="1" stop-color="#6165d7"/></linearGradient><linearGradient id="linear-gradient-23" x1="-4717.88" y1="1147.06" x2="-6886.41" y2="945.54" xlink:href="#linear-gradient-22"/><linearGradient id="linear-gradient-24" x1="-4687.28" y1="1491.88" x2="-6841.92" y2="1291.64" xlink:href="#linear-gradient-22"/><linearGradient id="linear-gradient-25" x1="3059.66" y1="2183.65" x2="2831.43" y2="2952.44" gradientTransform="translate(-1675.05)" gradientUnits="userSpaceOnUse"><stop offset="0" stop-color="#40447e"/><stop offset="1" stop-color="#3c3b6b"/></linearGradient><linearGradient id="linear-gradient-26" x1="3180.6" y1="2436.96" x2="4425.45" y2="2436.96" xlink:href="#linear-gradient-25"/><linearGradient id="linear-gradient-27" x1="3086.01" y1="2722.63" x2="2814.45" y2="3637.35" xlink:href="#linear-gradient-25"/><linearGradient id="linear-gradient-28" x1="1522.75" y1="3058.82" x2="2749.39" y2="3058.82" gradientTransform="matrix(1, 0, 0, 1, 0, 0)" xlink:href="#linear-gradient-25"/><linearGradient id="linear-gradient-29" x1="2573.39" y1="2719.42" x2="3374.95" y2="2728.18" gradientTransform="translate(-1675.05)" xlink:href="#linear-gradient-2"/><linearGradient id="linear-gradient-30" x1="-4651.24" y1="1809.78" x2="-6803.6" y2="1609.76" gradientTransform="translate(-1675.05)" xlink:href="#linear-gradient-2"/><linearGradient id="linear-gradient-31" x1="-6348.48" y1="2050.94" x2="-8500.78" y2="1850.92" gradientTransform="matrix(1, 0, 0, 1, 0, 0)" xlink:href="#linear-gradient-2"/><linearGradient id="linear-gradient-32" x1="2835.76" y1="2920.63" x2="2779.59" y2="2837.47" gradientTransform="translate(-1675.05)" xlink:href="#linear-gradient-2"/><linearGradient id="linear-gradient-33" x1="1148.14" y1="2968.04" x2="1277.01" y2="3395.97" gradientTransform="matrix(1, 0, 0, 1, 0, 0)" xlink:href="#linear-gradient"/><linearGradient id="linear-gradient-34" x1="649.58" y1="2664.68" x2="1126.36" y2="2664.68" gradientTransform="matrix(1, 0, 0, 1, 0, 0)" xlink:href="#linear-gradient-22"/><linearGradient id="linear-gradient-35" x1="553.87" y1="1785.81" x2="859.17" y2="1785.81" gradientTransform="matrix(1, 0, 0, 1, 0, 0)" xlink:href="#linear-gradient-22"/><linearGradient id="linear-gradient-36" x1="471.26" y1="2012.09" x2="776.56" y2="2012.09" gradientTransform="matrix(1, 0, 0, 1, 0, 0)" xlink:href="#linear-gradient-22"/><linearGradient id="linear-gradient-37" x1="388.65" y1="2241.96" x2="693.95" y2="2241.96" gradientTransform="matrix(1, 0, 0, 1, 0, 0)" xlink:href="#linear-gradient-22"/><linearGradient id="linear-gradient-38" x1="302.45" y1="2479.01" x2="607.75" y2="2479.01" gradientTransform="matrix(1, 0, 0, 1, 0, 0)" xlink:href="#linear-gradient-22"/><linearGradient id="linear-gradient-39" x1="219.84" y1="2705.29" x2="525.14" y2="2705.29" gradientTransform="matrix(1, 0, 0, 1, 0, 0)" xlink:href="#linear-gradient-22"/><linearGradient id="linear-gradient-40" x1="923.94" y1="2677.53" x2="1416.36" y2="2677.53" gradientTransform="matrix(1, 0, 0, 1, 0, 0)" xlink:href="#linear-gradient-22"/><linearGradient id="linear-gradient-41" x1="2333.57" y1="2933.92" x2="2749.3" y2="2933.92" gradientTransform="matrix(1, 0, 0, 1, 0, 0)" xlink:href="#linear-gradient-25"/><linearGradient id="linear-gradient-42" x1="2369.51" y1="2979.09" x2="3023.85" y2="2979.09" gradientTransform="translate(2896.37 -1034.28) rotate(45)" xlink:href="#linear-gradient-6"/><linearGradient id="linear-gradient-43" x1="2275.62" y1="2368.84" x2="2141.2" y2="2829.42" gradientTransform="matrix(1, 0, 0, 1, 0, 0)" xlink:href="#linear-gradient-22"/><linearGradient id="linear-gradient-44" x1="2416.75" y1="2954.41" x2="3025.96" y2="2954.41" gradientTransform="matrix(1, 0, 0, 1, 0, 0)" xlink:href="#linear-gradient-22"/></defs><g class="cls-2"><g id="Illustration"><path class="cls-3" d="M1967.64,461.16c-309.34,123-339,437.41-617.49,464.4-242.69,23.51-334.93-204.09-505.22-163.31-259.4,62.12-422.48,680.55-318.31,1189.06C634.2,2476.37,1086.17,3174.38,1835,3222c840.67,53.48,1476.76-749.63,1515.6-1454.42,4.2-76.22,29-714.84-459.23-1092.09C2866.93,656.65,2385.82,294.89,1967.64,461.16Z" transform="translate(-494.77 -417.58)"/><g class="cls-4"><path class="cls-5" d="M1801.46,3494.45c-19-9-52.46-45.3-57.27-58.36-32-86.9-102.61-245.72-67-336.94,6.07-15.58,81.83-7.36,96.49-18.72,49.57-6.48,67.17-5.66,111.27-35,130.19-86.54-10-373.5,260.32-370.94,198,1.86,329.85,112.94,400.82-172.45s456.89-722.42,688.64-432.34c133,166.47-115.52,348.28-85.13,551.53,28.87,193.13-86,307.28-295,349.95s-139.47,150-139.25,324.69c.25,209.89-302.8,149-440.31,109C2164.24,3372.63,1860.52,3365.24,1801.46,3494.45Z" transform="translate(-494.77 -417.58)"/><g class="cls-6"><g class="cls-7"><path class="cls-8" d="M1710.49,3276l-.5-3.56a1687.56,1687.56,0,0,0,501.28-152.55c151.41-73.48,292.8-170.22,420.26-287.54C2879,2604.54,3070,2302.77,3183.86,1959.64l3.4,1.14c-114,343.7-305.36,646-553.3,874.21-127.71,117.56-269.4,214.5-421.12,288.13A1691.45,1691.45,0,0,1,1710.49,3276Z" transform="translate(-494.77 -417.58)"/><path class="cls-8" d="M2725.65,3382.77c-152.29-111-436.78-204.75-634.16-208.93l.07-3.59c198,4.19,483.41,98.23,636.2,209.62Z" transform="translate(-494.77 -417.58)"/><path class="cls-8" d="M1844,3255.56l-1.47-3.28c93.73-42,162.61-129.77,204.74-260.84,30.87-96.05,46.92-212.71,47.69-346.74l3.6,0c-.79,134.4-16.89,251.42-47.87,347.82C2008.28,3124.62,1938.74,3213.12,1844,3255.56Z" transform="translate(-494.77 -417.58)"/><path class="cls-8" d="M2668,2801.15l-1.63-3.2c172.25-88.09,374-61.3,512.86-23.32l-.95,3.47C3040,2740.28,2839.23,2713.58,2668,2801.15Z" transform="translate(-494.77 -417.58)"/><path class="cls-8" d="M2950,2459.58l-3.33-1.35c35.21-86.82,79.28-272.05-21.21-537.09l3.36-1.28c33.92,89.48,54.79,182.55,60.34,269.18C2995.51,2288.72,2982.34,2379.74,2950,2459.58Z" transform="translate(-494.77 -417.58)"/></g></g><g class="cls-9"><path class="cls-10" d="M2270.16,3733q-158.65-23.32-316.91-53.95c-1.72,1.55-36.39-228.36,72.82-348.93,216-233.59,70.5-443.22,29-567.44-65.74-175-31.16-364.58,147-367.38,197.59-7,233.41-334,197.6-631.52-27.69-145.09,109.21-321.13,245.82-361.36,139.45-44.57,278.63,46.66,321.28,335.86,64.56,334.85-179.81,536.78-270.3,704.66-89,164.8,118.09,298.15-48.62,444.17-140.23,129.75-317,223-252.31,386C2462,3434.23,2446.05,3566,2270.16,3733Z" transform="translate(-494.77 -417.58)"/><g class="cls-7"><path class="cls-8" d="M2128.36,3746.62l-3.59,0c0-2,101-485.58,275.31-956.35,24.08-76.24,50.23-153.12,75.51-227.46,67.72-199.09,137.75-405,171-610,37.18-229.16,23.93-435.57-40.5-631l3.41-1.13c64.62,196,77.91,403,40.64,632.7-33.3,205.3-103.38,411.31-171.15,610.54-25.28,74.33-51.42,151.19-75.51,227.47C2229.81,3260.46,2128.59,3743.87,2128.36,3746.62Z" transform="translate(-494.77 -417.58)"/><path class="cls-8" d="M2601.46,2177.67l-2.67-2.4C2716.72,2044.24,2859,1858,2935.44,1758c59.64-78,61.74-80.23,64-79.86l-.56,3.55.28-1.77.68,1.62c-3,2-28.86,35.81-61.6,78.64C2861.82,1860.27,2719.48,2046.54,2601.46,2177.67Z" transform="translate(-494.77 -417.58)"/><path class="cls-8" d="M2637.71,1998.16c-24.44-150.45-86.45-249.36-134.16-305.84-53.14-62.91-101-89.41-105.84-89.85a1.34,1.34,0,0,0,.79-.25l-2-3c.94-.62,2.17-.44,4.87.73,13,5.67,61.76,36.15,112.9,99.71,64.42,80.07,108.33,183.09,127,297.91Z" transform="translate(-494.77 -417.58)"/><path class="cls-8" d="M2300,3098l-3.56-.43c16.64-139.77-15.93-290.11-96.8-446.83-42.18-81.73-96-161.79-159.85-238-4.41-5.27-6.23-7.44-6.73-8.31l3.11-1.8c.37.64,3,3.8,6.38,7.8,64.06,76.38,118,156.67,160.28,238.63C2284,2806.46,2316.7,2957.5,2300,3098Z" transform="translate(-494.77 -417.58)"/><path class="cls-8" d="M2347.69,2950.77l-3.06-1.89c126.72-204.72,393.81-219,396.1-218.26l1.34,1.68-1.23,1.77-.57-1.68-.17,1.75h0C2735.37,2734.14,2473.31,2747.81,2347.69,2950.77Zm392-220.11.57,1.7Z" transform="translate(-494.77 -417.58)"/><path class="cls-8" d="M2146,3667.73l-3.59-.13c2.24-60.88-19.51-164.64-135.85-313.25-6.22-7.94-6.22-7.94-6.07-9l3.56.51-1.78-.26,1.66-.64c.31.6,2.69,3.64,5.46,7.17C2126.4,3501.6,2148.27,3606.26,2146,3667.73Z" transform="translate(-494.77 -417.58)"/><path class="cls-8" d="M2172.89,3553.08l-3.46-1c13.39-46.21,66.11-136.74,268.74-224,2.81-1.22,4.62-2,5.27-2.32l1.64,3.19c-.67.35-2.56,1.16-5.49,2.42C2238.32,3418.06,2186.1,3507.48,2172.89,3553.08Z" transform="translate(-494.77 -417.58)"/></g></g></g><path class="cls-11" d="M2137.89,650.26c116.26-49,227.13-35.81,282.48-15,65.44,24.63,87.15,43.11,145.08,52.41,51.49,8.26,104.94-45.45,145.08-7.49a63.33,63.33,0,0,1,9.76,11.23c28.75,42.26-5.21,93.31,4.19,182.49,4.81,45.63,16.44,58.29,27.2,146,4.09,33.35,3.24,38.26,2.09,42.11-17.58,59.17-157.09,48-255.28,22.46-135.37-35.2-178.95-94.24-267.84-67.38-41,12.39-72.16,37.17-92.07,56.15C2147.65,932.88,2128.82,790.63,2137.89,650.26Z" transform="translate(-494.77 -417.58)"/><path class="cls-12" d="M2139.35,1967.52a5.47,5.47,0,0,1-5.47-5.47V608.52a5.47,5.47,0,0,1,10.94,0V1962.05A5.47,5.47,0,0,1,2139.35,1967.52Z" transform="translate(-494.77 -417.58)"/><path class="cls-13" d="M2115.35,1110.59l9.79-13.65s-1.88-7.17,1.31-12.41l3.18-5.25s4.15-3.9,12.1-1.17a6,6,0,0,0,5.34-.66c4.69-3.24,5.94,5.68,5.94,5.68s3.39,4,.35,7.42c0,0-.4,5.09-4.18,7.69s-13.95,6.9-13.95,6.9l-10.94,13.17Z" transform="translate(-494.77 -417.58)"/><path class="cls-14" d="M2113.8,1096.19c-70,27.88-115,17-135.9,9.11-26.3-9.87-51.51-28-51.51-28-35.6-25.59-49.54-51-84.63-56.57a81.63,81.63,0,0,0-19.09-.76c-50.62,4.48-107,71.47-99.73,116,12.57,77.24,227.61,156.79,345.69,70.81,38-27.68,57-66,66.76-92Z" transform="translate(-494.77 -417.58)"/><path class="cls-15" d="M1656.66,1894.62c-2.88,2.65-3.06,8.84-3.18,12.88a9.83,9.83,0,0,0,.16,3.34c1.75,4.54,10.75,4.48,24.92,5.06,22.38.91,29.11,2.26,30.65-1.16,1.44-3.2-2.82-8-3.3-8.57-2.57-2.87-5.57-3.78-11.36-5.3-10.7-2.82-17.91-4.28-20.09-4.72C1660.83,1893.39,1658.55,1892.89,1656.66,1894.62Z" transform="translate(-494.77 -417.58)"/><path class="cls-16" d="M1672.36,1872.3l.87,25.48c-.69,1.19-8.43,4.47-14.25,1l-4.39-25.24Z" transform="translate(-494.77 -417.58)"/><path class="cls-17" d="M1845.22,1895c-3.85,3.82-5.07,11.17-2.1,15s7.73,1.31,21,2.41c14.17,1.18,17.7,4.73,27.48,2.59,4-.87,11-3.12,11-5.9,0-2-3.44-3.16-14.93-7.71-16.31-6.45-16.22-6.75-19.72-7.52C1859.12,1891.87,1850.31,1889.92,1845.22,1895Z" transform="translate(-494.77 -417.58)"/><path class="cls-18" d="M1855.55,1872.3l5.85,24.06c-.6,1.24-8.06,5.09-14.13,2.08l-9.34-23.55Z" transform="translate(-494.77 -417.58)"/><path class="cls-19" d="M1820,1350.38a2221.4,2221.4,0,0,0,42,529.18l-27.63,5.88c-21.89-22.72-49.15-58.09-60.62-106.63-7.12-30.12-3.41-45.21-7-82-5.69-58.56-21.87-89.94-37.77-137.77-14.3-43-30.55-105.79-36.62-188.93Z" transform="translate(-494.77 -417.58)"/><path class="cls-20" d="M1807.28,1722.5c-10.15-40.17-29.69-50.79-30.38-88.71-.5-26.82,9.14-29,8.5-54.68-1-38.94-23.78-59.36-35.24-83.85-12.1-25.87-16.74-67.42,15.88-136.53l-73.64,11.39c6.07,83.14,22.32,146,36.62,188.93,15.9,47.83,32.08,79.21,37.77,137.77,3.57,36.78-.14,51.87,7,82,11.47,48.54,38.73,83.91,60.62,106.63l7-1.5c-23.67-28.25-32-53.47-34.14-74C1803.82,1776.69,1817.5,1763,1807.28,1722.5Z" transform="translate(-494.77 -417.58)"/><path class="cls-21" d="M1727.93,1345.4q-16.44,151.35-30.11,308.47-10.2,117.87-18.23,232.84l-28,2a324.82,324.82,0,0,1-25-76.45c-7.79-40.25-4.23-63.71-6.38-105.11-2.41-46.43-9-56.87-18.38-115.78-19.14-119.55-28.72-179.33,1.64-214.58C1613.3,1365.3,1643.79,1336.9,1727.93,1345.4Z" transform="translate(-494.77 -417.58)"/><path class="cls-22" d="M1486.1,1031.63a606.18,606.18,0,0,1,360.08-10.17l15.06,84.27a1003.23,1003.23,0,0,1-1.63,111.38c-3.17,45.07-6.27,45.75-13.51,109.37-11.82,103.73-6.88,130.83-27.73,143.29-13.55,8.1-18.46-1.68-87.65-8.54-46.4-4.6-70.08-6.73-93.57,1.22-32,10.82-42.7,29-55.9,23.09-12.66-5.68-14.27-27.53-15.8-65.62-2.36-58.77-2.21-98.72-2.43-113-1-65.6-17.61-115.69-38.88-179.85A869.21,869.21,0,0,0,1486.1,1031.63Z" transform="translate(-494.77 -417.58)"/><path class="cls-23" d="M1701.4,934.47a192.63,192.63,0,0,1-5.5,38.33c-2.54,10.15-4.12,12.73-6.07,14.78-2.93,3.09-7.26,5.58-31.19,10.18-13,2.5-14.68,2.33-15,3.59-1.72,6.15,32.21,29.23,68.7,26.05,22.33-1.94,43.17-13.51,42.29-20.22s-23.22-4.35-29.18-16.79c-4.14-8.66,1.65-20.32,8.26-29.89C1728.38,949.15,1706.7,945.82,1701.4,934.47Z" transform="translate(-494.77 -417.58)"/><path class="cls-24" d="M1742.19,943.18c5.6-6.67,6.57-18.78,1-26.77-4.84-6.88-13-8.26-17.81-9.08-14.07-2.39-32.26,2.56-39.17,15.26-4.09,7.53,3,24,4.11,27,1.24,3.34,3.74,4.59,6,7.19,3.1,3.59,8,9.31,15.85,18.85a59.59,59.59,0,0,1,3.73-9.44,51.82,51.82,0,0,1,7.33-10.93C1731,946.61,1736.88,949.5,1742.19,943.18Z" transform="translate(-494.77 -417.58)"/><path class="cls-25" d="M1700.55,967.3s8.5,15.77,27.1,15.56c16.65-.2,21.07-37.29,10.89-45.75-3.4-2.82-10.42-4.29-16.26-3-3.46.77-4.68,2.13-10.35,3.28-5.23,1.06-6.65.41-8.28,1.63-2,1.54-3.67,5.48-1,16.53-3-3.37-6.73-4.81-9.49-3.68a5.74,5.74,0,0,0-2.33,2C1688.29,958,1691.88,963.68,1700.55,967.3Z" transform="translate(-494.77 -417.58)"/><path class="cls-26" d="M1703,936.77c.77.64-1.83,3.49-2.24,7.71-.8,8.18,7,18.48,15.41,19.76,5,.76,6.52-2.18,14.84-2.61a37.88,37.88,0,0,1,12,1.34c2.12,9.13-.8,18-7,21.81-6.71,4.14-14.84,1-18.24-.34-2.27-.89-9.55-3.7-13.06-10.71-3.66-7.3.53-11.35-3.85-16.39-2.2-2.54-5.21-3.75-8-8.59a24.09,24.09,0,0,1-1.52-3.24C1695.94,941.2,1701.91,935.84,1703,936.77Z" transform="translate(-494.77 -417.58)"/><path class="cls-27" d="M1736.87,966s-3.68,1.68-9.86,1c-.3,0-.64,0-.68.19-.18.58,3.66,3.43,7.37,2.6,2.64-.59,4.79-2.95,4.48-3.59C1738,965.91,1737.45,965.91,1736.87,966Z" transform="translate(-494.77 -417.58)"/><path class="cls-28" d="M1532.64,1307l16.7-.94s18.29-15.31,26.62-14.35,20.78,6.73,22.3,7.94-4.56,8-10.63,7.35-19.64,2.61-22.06,8-13,8.58-14.74,5.44l-22.44,4.46Z" transform="translate(-494.77 -417.58)"/><path class="cls-29" d="M1537.69,1301.11c1.17,13.7-1.81,23-6.79,29.39-22.07,28.27-97.07,16.71-141.65-21.17-33-28-50.47-71.57-49.83-110.58,1.26-76.12,71.81-150.7,176.74-176.47l46.6,139.29c-64.69,1-104,49.76-98.17,84.57C1468.93,1272.08,1499.18,1295.41,1537.69,1301.11Z" transform="translate(-494.77 -417.58)"/><path class="cls-30" d="M1791.48,1435.71c-34-14.52-33.84-44.57-65.62-57.11-45.36-17.9-95.47,23.68-103.29,12.15-8.15-12,51.71-48.78,43.74-85.06-6.32-28.83-48.1-23.73-70.48-63.19-21.22-37.44-.65-72.06-19.44-85.07-6.74-4.66-18.63-6.51-41.18,3.42,15.72,49.09,27,92.39,27.81,146.05.22,14.3.07,54.25,2.43,113,1.53,38.09,3.14,59.94,15.8,65.62,13.2,5.91,23.9-12.27,55.9-23.09,23.49-8,47.17-5.82,93.57-1.22,69.19,6.86,74.1,16.64,87.65,8.54,8.84-5.28,13-13.21,15.84-28.46C1820.34,1442.81,1805.63,1441.75,1791.48,1435.71Z" transform="translate(-494.77 -417.58)"/><path class="cls-31" d="M1612,2287.62q-289,10.26-577.74,23.4c-53.06,2.41-96.31-56.2-97.48-131l-.78-50.72c-1.17-74.75,40.43-139.75,93.78-145.16q290.16-29.4,580.86-55.91Q1611.36,2107.94,1612,2287.62Z" transform="translate(-494.77 -417.58)"/><path class="cls-32" d="M1530.78,2304.27q-244.59,10.91-489,23.87c-69.14,2.93-125.44-73.62-127-170.74,0-.35,0-.71,0-1.06-1.55-97.12,52.55-182,122.13-189.26q245.7-30.3,491.88-58.54c8.63-.83,108.88,7.82,108.91,18.48s-93.48,19-102.05,19.82q-249.36,26.52-498.26,55.15c-56.19,5.5-100.09,74-98.87,152.56,0,.36,0,.71,0,1.07,1.24,78.61,46.91,140.31,102.81,137.61q244.55-14.64,489.29-27.22c8.54-.38,108.23,10,108.26,20.67S1539.35,2303.93,1530.78,2304.27Z" transform="translate(-494.77 -417.58)"/><path class="cls-3" d="M2723.28,2275.69q-590.34-1.36-1180.44,9.23l-1.77-358.35q593.78,4.79,1187.24,21.61Q2725.79,2111.94,2723.28,2275.69Z" transform="translate(-494.77 -417.58)"/><path class="cls-33" d="M2737.83,1967q-604.26-16.35-1208.9-20.21c-8.17,0-14.84-8.67-14.9-19.25s6.54-19.08,14.71-19q605,5.54,1209.64,23.56c6.79.2,12.17,8.18,12,17.81S2744.62,1967.19,2737.83,1967Z" transform="translate(-494.77 -417.58)"/><path class="cls-34" d="M2732.78,2293.17q-601.14-.66-1202,11.1c-8.1.16-14.76-8.29-14.81-18.86s6.49-19.26,14.61-19.4q601.23-10.08,1202.74-7.75c6.76,0,12.11,7.86,12,17.49S2739.53,2293.17,2732.78,2293.17Z" transform="translate(-494.77 -417.58)"/><path class="cls-35" d="M1619.58,2298.57h-.11l-18.24-.15-79.45,2.41-469.19,16.36a120.68,120.68,0,0,0-39.58,7.59c-54,20.36-90.83,78.5-86.78,145.56l.08.87c4.45,74.2,57.46,134.25,122.26,143.44a120.53,120.53,0,0,0,20.43,1.18l392.83-15.34,62.21-2.44,24-.94,69.1-3.07,14.44-.95h.11l4.92.2,10-.21.29-2.85,1.15-12.6.14-1.52.93-10.26,22.13-241.61,1.4-15.3.65-7.29.61-5.78Z" transform="translate(-494.77 -417.58)"/><path class="cls-3" d="M2725.2,2573.48,1690,2580c-86.13.54-157.41-49.62-159.63-112.24l-1.51-42.61c-2.22-63,66-115.25,152.77-116.5l1043.37-15Z" transform="translate(-494.77 -417.58)"/><path class="cls-36" d="M2736.38,2588.21l-1090.32,6.37c-74.59.44-137.42-65.35-140.37-147l0-.9c-3-82,55.57-150,130.79-151.08l1099.8-16.26c7.82-.12,14.15,6.53,14.15,14.85s-6.33,15.14-14.14,15.25l-1098.88,15.29c-60.6.84-107.84,55.53-105.51,121.68l0,.9c2.32,65.9,53,119,113.23,118.59l1091.23-7.31c7.75-.05,14,6.55,14,14.73S2744.12,2588.17,2736.38,2588.21Z" transform="translate(-494.77 -417.58)"/><path class="cls-37" d="M1634.23,2840.74l-17.13.57-62.57,2.12-33.36,1.15-286,9.66-12,.43-54.31,1.83-87,2.95-35.16,1.19a86.42,86.42,0,0,0-31.82,6.78,99.75,99.75,0,0,0-19.63,11.07c-43,30.45-72.32,96.47-72.32,172.25v1.15c0,103.41,54.86,190.08,124,193.24L1617.31,3261l36.28,1,2-20.23,1-9.8,33.68-336.11,2.36-19.36,2.55-21v0l.9-13.4.14-3.49Z" transform="translate(-494.77 -417.58)"/><path class="cls-3" d="M2726,2862.43v348.79l-284.35,11.25L1719.29,3251a176.84,176.84,0,0,1-64-9.13c-62.86-21.37-107.41-77.33-107.41-144.78v-60.19c0-80,62.84-147,144.22-160.3a182,182,0,0,1,27.51-2.41l633.09-7.36Z" transform="translate(-494.77 -417.58)"/><path class="cls-38" d="M2749.39,3210.36c0,10.24-5.49,18.79-12.25,19.07l-272.75,11.17L1671.27,3273c-19,.79-36.48-3.52-53.29-12-56-28.23-95.23-103-95.23-192.16v-1.25c0-115.51,66.46-210.3,148.43-211.81l.49,0,22.82-.25,666.31-7,376.34-4h.08c6.71,0,12.17,8.42,12.17,18.66s-5.49,18.74-12.25,18.81l-9.73.19-380.65,5.06-656.53,8.66-18.48.26c-66.3.86-120.27,77.44-120.27,170.72v1.26c0,86.27,46.1,155.92,105.54,163.89a84,84,0,0,0,14.49.68l752.09-28.55,303.87-11.53,9.7-.36C2743.93,3192,2749.39,3200.09,2749.39,3210.36Z" transform="translate(-494.77 -417.58)"/><path class="cls-31" d="M1617.11,2845.64l-577.63,13c-53.1,1.2-95.43-40.83-95.43-93.86v-36c0-53,42.33-98.66,95.43-102l577.63-36.06Z" transform="translate(-494.77 -417.58)"/><path class="cls-39" d="M1535.83,2857.19l-489.12,13.68c-69.2,1.41-124.3-53.51-124.3-122.39v-.76c0-68.88,55.1-128.47,124.3-132.93l489.12-38.25c8.58-.54,108.08,5.89,108.08,13.43s-92.94,13.25-101.45,13.76l-495.75,35.82C990.8,2642.91,946.1,2691,946.1,2746.72v.76c0,55.75,44.7,100,100.61,98.63l489.12-16.05c8.52-.23,108.08,7.44,108.08,15S1544.4,2857,1535.83,2857.19Z" transform="translate(-494.77 -417.58)"/><polygon class="cls-3" points="2231.21 2182.76 2231.21 2415.04 1871.1 2418.38 1200.49 2424.56 1145.82 2425.06 1122.24 2425.28 1059.67 2425.85 1053.12 2425.92 1053.12 2171.81 1116.8 2171.92 1116.88 2171.92 1149.06 2172.47 1152.11 2172.63 1434.17 2175.31 2231.21 2182.76"/><path class="cls-40" d="M2737.16,2613.58l-1201.33-9.91c-8.12-.06-14.7-6.2-14.7-13.7s6.58-13.51,14.7-13.43l1201.33,12.28a12.44,12.44,0,0,1,12.21,12.49A12.17,12.17,0,0,1,2737.16,2613.58Z" transform="translate(-494.77 -417.58)"/><path class="cls-41" d="M2749.39,2832.21a12.24,12.24,0,0,1-12.17,12.3h-.08l-376.44,4-666.41,6.92-23,.27-.9.9-134.55,2.24h-.14c-6.54,0-12-4.76-13.9-10.22a17.07,17.07,0,0,1-.61-3.66,8,8,0,0,1,0-1c0-7.51,6.57-13.86,14.69-13.86h.47L1548,2830l69.1-.59,756.13-6.23,354.18-2.95,9.73-.17A12.08,12.08,0,0,1,2749.39,2832.21Z" transform="translate(-494.77 -417.58)"/><path class="cls-42" d="M1490.89,3215l-129-7.36c-31.17-88.86-28.81-174.55,0-278.79l129,.39C1465,3035.65,1469,3129.78,1490.89,3215Z" transform="translate(-494.77 -417.58)"/><path class="cls-43" d="M1223.53,2868.87l-4.1-160.88-148.06,163s-80,43.12-66.27,118.84l91.53-36.41,81.3,28.17S1180,2902.05,1223.53,2868.87Z" transform="translate(-494.77 -417.58)"/><path class="cls-44" d="M1054.72,2718.05,1219.43,2708s-77.46,58.85-41.5,273.59c0,0-70.41-22.37-101-60.66l-71.79,68.9S961.28,2798.9,1054.72,2718.05Z" transform="translate(-494.77 -417.58)"/><path class="cls-45" d="M1117.82,2034.67c-6.46-2.35-13.38.35-15.46,6L650.17,3280.15c-2.08,5.68,1.48,12.19,7.94,14.55s13.38-.35,15.46-6l452.19-1239.44C1127.84,2043.54,1124.28,2037,1117.82,2034.67Z" transform="translate(-494.77 -417.58)"/><rect class="cls-46" x="553.87" y="1773.24" width="305.3" height="25.14" rx="11.9"/><rect class="cls-47" x="471.26" y="1999.51" width="305.3" height="25.14" rx="11.9"/><rect class="cls-48" x="388.65" y="2229.38" width="305.3" height="25.14" rx="11.9"/><rect class="cls-49" x="302.45" y="2466.44" width="305.3" height="25.14" rx="11.9"/><rect class="cls-50" x="219.84" y="2692.72" width="305.3" height="25.14" rx="11.9"/><path class="cls-51" d="M1407.54,2026.09c-6.67-2.43-13.82.36-16,6.24l-467,1281.59c-2.14,5.88,1.53,12.61,8.21,15s13.82-.36,16-6.23l467-1281.6C1417.89,2035.26,1414.21,2028.52,1407.54,2026.09Z" transform="translate(-494.77 -417.58)"/><path class="cls-52" d="M2726,2882.22v310.4l10.46-.36c6.75-.25,12.6,7.83,12.6,18.1s-5.31,18.79-12.07,19.07L2464.3,3240.6c-7.62-5.71-14.93-11.78-22-18.13-6.5-5.86-12.8-12-18.83-18.32a326.66,326.66,0,0,1-76.71-316.9q3-10.39,6.69-20.47,3.33-9.17,7.25-18c1.87-4.31,3.85-8.59,5.9-12.79s4.31-8.58,6.64-12.79a329.83,329.83,0,0,1,69-87.31c59.95-66.63,146.08-108.61,242.51-108.61,14.23,0,30.5.89,41.27,2.69v190.29l10.46-.07a12.47,12.47,0,0,1,12.6,12.24,12.33,12.33,0,0,1-12,12.5c6.71,0,12.26,8.23,12.26,18.47s-6.17,18.64-12.92,18.71Z" transform="translate(-494.77 -417.58)"/><circle class="cls-53" cx="2696.68" cy="2979.09" r="327.17" transform="translate(-1811.47 2361.81) rotate(-45)"/><circle class="cls-54" cx="2226.59" cy="2536.83" r="327.17"/><path class="cls-55" d="M3026,2954.41c0,168.24-136.36,304.61-304.61,304.61a303,303,0,0,1-163.08-47.32c-85.07-54-141.52-149-141.52-257.29,0-168.24,136.36-304.6,304.6-304.6,2.82,0,5.61,0,8.4.12C2894.1,2654.37,3026,2789,3026,2954.41Z" transform="translate(-494.77 -417.58)"/><polygon class="cls-56" points="2226.59 2396.86 1953.03 2480.24 2226.59 2563.63 2500.15 2480.24 2226.59 2396.86"/><path class="cls-56" d="M2721.36,3010.44,2549.18,2958v119.89a41.67,41.67,0,0,0,33,40.77c92.46,19.61,181.37,20.22,266.5.65a41.6,41.6,0,0,0,32.15-40.59V2961.83Z" transform="translate(-494.77 -417.58)"/><path class="cls-56" d="M2511.16,3060.17q-22.44,10-39.24.42a8.78,8.78,0,0,1-4.17-9.38l24.35-121.07,24.17,120.15A8.9,8.9,0,0,1,2511.16,3060.17Z" transform="translate(-494.77 -417.58)"/><polygon class="cls-56" points="2226.59 2467.89 1993.79 2492.63 1993.79 2533.01 2000.69 2533.01 2001.4 2497.62 2226.59 2467.89"/><path class="cls-57" d="M3026,2954.41c0,168.24-136.36,304.61-304.61,304.61a303,303,0,0,1-163.08-47.32c28.65-77.93,111.46-161.57,197.18-214,158.7-97,38.11-272.31-25.7-347.77C2894.1,2654.37,3026,2789,3026,2954.41Z" transform="translate(-494.77 -417.58)"/></g></g></svg>