<svg xmlns="http://www.w3.org/2000/svg" xmlns:xlink="http://www.w3.org/1999/xlink" viewBox="0 0 2809.9 2800"><defs><style>.cls-1{opacity:0.3;fill:url(#linear-gradient);}.cls-2{fill:url(#linear-gradient-2);}.cls-3,.cls-35,.cls-7,.cls-8{fill:#fff;}.cls-3{opacity:0.43;}.cls-4{fill:url(#linear-gradient-3);}.cls-5{fill:url(#linear-gradient-4);}.cls-6{fill:url(#linear-gradient-5);}.cls-7{opacity:0.5;}.cls-8{opacity:0.8;}.cls-9{fill:url(#linear-gradient-6);}.cls-10{fill:url(#linear-gradient-7);}.cls-11{fill:url(#linear-gradient-8);}.cls-12{fill:url(#linear-gradient-9);}.cls-13{fill:url(#linear-gradient-10);}.cls-14{fill:url(#linear-gradient-11);}.cls-15{fill:url(#linear-gradient-12);}.cls-16{fill:url(#linear-gradient-13);}.cls-17{fill:url(#linear-gradient-14);}.cls-18{fill:url(#linear-gradient-15);}.cls-19{fill:url(#linear-gradient-16);}.cls-20{fill:url(#linear-gradient-17);}.cls-21{fill:url(#linear-gradient-18);}.cls-22{fill:url(#linear-gradient-19);}.cls-23{fill:url(#linear-gradient-20);}.cls-24{fill:url(#linear-gradient-21);}.cls-25{fill:url(#linear-gradient-22);}.cls-26{fill:url(#linear-gradient-23);}.cls-27{fill:url(#linear-gradient-24);}.cls-28{fill:url(#linear-gradient-25);}.cls-29{fill:url(#linear-gradient-26);}.cls-30{fill:url(#linear-gradient-27);}.cls-31{fill:url(#linear-gradient-28);}.cls-32{fill:url(#linear-gradient-29);}.cls-33{fill:#eac4f9;}.cls-34{fill:url(#linear-gradient-30);}.cls-36{fill:url(#linear-gradient-31);}</style><linearGradient id="linear-gradient" x1="3560.04" y1="4066.5" x2="1078.81" y2="984.97" gradientUnits="userSpaceOnUse"><stop offset="0" stop-color="#b37cff"/><stop offset="1" stop-color="#f895e7"/></linearGradient><linearGradient id="linear-gradient-2" x1="2810.13" y1="2272.21" x2="1280.33" y2="4205.33" gradientTransform="translate(-201.18 80.38) rotate(-14.26)" gradientUnits="userSpaceOnUse"><stop offset="0" stop-color="#cb236d"/><stop offset="1" stop-color="#4c246d"/></linearGradient><linearGradient id="linear-gradient-3" x1="1716.04" y1="1681.47" x2="252.34" y2="3531.04" gradientTransform="translate(343.65 352.62) rotate(-30.83)" gradientUnits="userSpaceOnUse"><stop offset="0" stop-color="#a737d5"/><stop offset="1" stop-color="#ef497a"/></linearGradient><linearGradient id="linear-gradient-4" x1="902.04" y1="2020.27" x2="2555.78" y2="2020.27" gradientUnits="userSpaceOnUse"><stop offset="0" stop-color="#2b3582"/><stop offset="1" stop-color="#150e42"/></linearGradient><linearGradient id="linear-gradient-5" x1="2146.02" y1="1393.1" x2="-1187.69" y2="5657.74" gradientUnits="userSpaceOnUse"><stop offset="0" stop-color="#fdf53f"/><stop offset="0.66" stop-color="#e57a58"/><stop offset="1" stop-color="#d93c65"/></linearGradient><linearGradient id="linear-gradient-6" x1="1524.54" y1="714.63" x2="1515.28" y2="1613.37" gradientTransform="matrix(1, 0, 0, 1, 0, 0)" xlink:href="#linear-gradient-3"/><linearGradient id="linear-gradient-7" x1="-3704.53" y1="-1917.35" x2="-3343.06" y2="-1078.46" gradientTransform="matrix(-1, 0, 0, 1, -1165.43, 0)" xlink:href="#linear-gradient-4"/><linearGradient id="linear-gradient-8" x1="986.38" y1="2159.99" x2="1324.02" y2="1721.47" gradientUnits="userSpaceOnUse"><stop offset="0" stop-color="#f9b776"/><stop offset="1" stop-color="#f47960"/></linearGradient><linearGradient id="linear-gradient-9" x1="-1777.18" y1="3200.32" x2="-1702.28" y2="3200.32" gradientTransform="matrix(-1, 0, 0, 1, -1165.43, 0)" xlink:href="#linear-gradient-3"/><linearGradient id="linear-gradient-10" x1="-2093.65" y1="3495.67" x2="-1985.87" y2="2235.99" gradientTransform="matrix(-1, 0, 0, 1, -1165.43, 0)" xlink:href="#linear-gradient-8"/><linearGradient id="linear-gradient-11" x1="-2125.13" y1="3186.65" x2="-2003.95" y2="3186.65" gradientTransform="matrix(-1, 0, 0, 1, -1165.43, 0)" xlink:href="#linear-gradient-3"/><linearGradient id="linear-gradient-12" x1="-1876.84" y1="3514.41" x2="-1769.03" y2="2254.41" gradientTransform="matrix(-1, 0, 0, 1, -1165.43, 0)" xlink:href="#linear-gradient-8"/><linearGradient id="linear-gradient-13" x1="924.71" y1="2222.06" x2="1267.52" y2="1443.77" gradientTransform="matrix(1, 0, 0, 1, 0, 0)" xlink:href="#linear-gradient-3"/><linearGradient id="linear-gradient-14" x1="-1794.12" y1="2249.91" x2="-2063.58" y2="2681.05" gradientTransform="matrix(-1, 0, 0, 1, -1165.43, 0)" xlink:href="#linear-gradient-5"/><linearGradient id="linear-gradient-15" x1="938.05" y1="1849.02" x2="903.05" y2="2190.78" xlink:href="#linear-gradient-8"/><linearGradient id="linear-gradient-16" x1="-2298.67" y1="1761.89" x2="-2122.01" y2="1447.51" gradientTransform="matrix(-0.98, -0.19, -0.19, 0.98, -936.34, -99.24)" xlink:href="#linear-gradient-8"/><linearGradient id="linear-gradient-17" x1="-3886.42" y1="-2276.87" x2="-3524.95" y2="-1437.98" gradientTransform="matrix(-0.98, -0.19, -0.19, 0.98, -936.34, -99.24)" xlink:href="#linear-gradient-4"/><linearGradient id="linear-gradient-18" x1="-2261.06" y1="1783.02" x2="-2084.41" y2="1468.64" gradientTransform="matrix(-0.98, -0.19, -0.19, 0.98, -936.34, -99.24)" xlink:href="#linear-gradient-8"/><linearGradient id="linear-gradient-19" x1="1007.47" y1="2176.22" x2="1345.1" y2="1737.71" xlink:href="#linear-gradient-8"/><linearGradient id="linear-gradient-20" x1="1263.45" y1="1808.68" x2="1294.33" y2="1600.74" xlink:href="#linear-gradient-8"/><linearGradient id="linear-gradient-21" x1="515.24" y1="2368.47" x2="874.8" y2="2368.47" xlink:href="#linear-gradient-8"/><linearGradient id="linear-gradient-22" x1="2466.81" y1="182.47" x2="577.24" y2="3294.71" gradientTransform="matrix(1, 0, 0, 1, 0, 0)" xlink:href="#linear-gradient-2"/><linearGradient id="linear-gradient-23" x1="2611.05" y1="270.05" x2="721.49" y2="3382.28" gradientTransform="matrix(1, 0, 0, 1, 0, 0)" xlink:href="#linear-gradient-2"/><linearGradient id="linear-gradient-24" x1="1389.8" y1="1177.13" x2="1292.53" y2="2112.77" gradientTransform="translate(97.33 47.54) rotate(1.84)" xlink:href="#linear-gradient-3"/><linearGradient id="linear-gradient-25" x1="1522.94" y1="1190.96" x2="1425.67" y2="2126.61" gradientTransform="translate(97.33 47.54) rotate(1.84)" xlink:href="#linear-gradient-3"/><linearGradient id="linear-gradient-26" x1="1665.19" y1="1205.75" x2="1567.92" y2="2141.4" gradientTransform="translate(97.33 47.54) rotate(1.84)" xlink:href="#linear-gradient-3"/><linearGradient id="linear-gradient-27" x1="1947.2" y1="1235.07" x2="1849.93" y2="2170.72" gradientTransform="translate(97.33 47.54) rotate(1.84)" xlink:href="#linear-gradient-3"/><linearGradient id="linear-gradient-28" x1="2089.44" y1="1249.86" x2="1992.17" y2="2185.5" gradientTransform="translate(97.33 47.54) rotate(1.84)" xlink:href="#linear-gradient-3"/><linearGradient id="linear-gradient-29" x1="1798.33" y1="1219.59" x2="1701.06" y2="2155.24" gradientTransform="translate(97.33 47.54) rotate(1.84)" xlink:href="#linear-gradient-3"/><linearGradient id="linear-gradient-30" x1="559.59" y1="788.41" x2="976.53" y2="1983.64" gradientTransform="matrix(1, 0, 0, 1, 0, 0)" xlink:href="#linear-gradient-3"/><linearGradient id="linear-gradient-31" x1="1107.29" y1="483.37" x2="1215.88" y2="1006.57" gradientTransform="translate(-325.48 -181.81) rotate(-6.67)" xlink:href="#linear-gradient-3"/></defs><g id="Illustration"><path class="cls-1" d="M2877.44,2851.26c-57,60-110.92,98.69-153.52,129.26-500.83,359.35-1093.44,254.6-1219.39,229-186-37.77-545.48-110.79-805.39-416.44-393.23-462.43-332-1191-27-1671.89,55.8-88,350.5-576.21,949.5-654.51,362.5-47.39,785.06,48.19,1091.07,304.56C3355.06,1309.41,3309.33,2396.58,2877.44,2851.26Z" transform="translate(-423.26 -455)"/><path class="cls-2" d="M3233.06,1461.4c-.11-16.63-22.49-22.07-30.15-7.32-74.11,142.62-280.15,510.5-514.37,679.66-381.38,275.44-703.2,784.75-564.08,1112.35C2124.46,3246.09,3245,3272.7,3233.06,1461.4Z" transform="translate(-423.26 -455)"/><path class="cls-3" d="M3158.06,1671.31c-1.42,4.87-3,8.78-4.46,13l-4.67,12.51-9.59,24.89c-6.51,16.54-13.27,33-20,49.41q-20.47,49.23-42,98c-28.82,65-59.39,129.19-90.92,192.92s-64.67,126.67-99.21,188.84-70.09,123.8-107.59,184.26c-74.76,121.06-156.16,238.17-245.52,349.05-45.25,55-92,108.77-141.69,159.75-50.09,50.61-102.35,99.11-157.91,143.59a2.81,2.81,0,0,1-3.59-4.31l0,0A2066.7,2066.7,0,0,0,2384,2936c48.63-51.5,94.22-105.77,138.33-161.15s85.95-112.61,126.49-170.7,78.62-117.89,116.36-177.85c75-120.29,143.56-244.54,208.64-370.54q48.61-94.62,93.55-191.09,22.58-48.18,44.17-96.81l21.14-48.81,10.32-24.51,5-12.29c1.58-4,3.35-8.39,4.58-12l.21-.6a2.78,2.78,0,0,1,5.29,1.68Z" transform="translate(-423.26 -455)"/><path class="cls-4" d="M2782.09,757.78c-4.64-15.22-26.64-14.1-29.64,1.52-29.06,151-117.64,544.58-286.3,763.6-274.6,356.63-430.78,911.49-213.83,1174C2252.32,2696.86,3287.17,2415.58,2782.09,757.78Z" transform="translate(-423.26 -455)"/><path class="cls-3" d="M2770.63,970.74c0,4.86-.33,8.86-.53,13.19l-.86,12.75-2,25.44c-1.46,16.94-3.17,33.86-4.88,50.78q-5.33,50.73-11.8,101.34c-8.68,67.46-19.2,134.67-30.72,201.72s-24.74,133.81-39.46,200.25-30.49,132.65-48.39,198.34c-35.52,131.41-78.24,261-129.94,387.08-26.52,62.75-54.69,124.84-86.4,185.15-32.14,60.07-66.84,118.8-105.68,174.73a2.73,2.73,0,0,1-4.55-3l0,0a1980.91,1980.91,0,0,0,100.16-176.84c30.54-60.49,57.53-122.7,82.87-185.52s48.09-126.71,69.41-191,39.92-129.55,58.19-194.84c36-130.76,64.94-263.4,90.27-396.7q18.78-100,33.68-200.75,7.58-50.34,14.11-100.82l6.09-50.53,2.79-25.29,1.25-12.64c.35-4.15.78-8.61.94-12.24l0-.61a2.71,2.71,0,0,1,5.41.1Z" transform="translate(-423.26 -455)"/><path class="cls-5" d="M932.34,911.41C922.59,1304.86,891,2662,906.06,3143a96.56,96.56,0,0,0,93.39,93.52c252,8.24,976.92,29.14,1389.1,11.85a162.59,162.59,0,0,0,155.9-159.05c8.57-413,27.46-1574.53-17.45-2106.64a132.71,132.71,0,0,0-119.09-120.9c-274.43-27.45-1003.33-94.56-1359.42-71.45A124.36,124.36,0,0,0,932.34,911.41Z" transform="translate(-423.26 -455)"/><path class="cls-6" d="M1034.74,1033.66C1021,1355.9,977.56,2427.9,991.34,2824.31a112.16,112.16,0,0,0,105.56,108.17c238.29,13.95,849.49,44.69,1199,16.71a126.07,126.07,0,0,0,115.72-119c17.71-328.75,68.56-1326.93,55.36-1718.89a123.92,123.92,0,0,0-112.86-119.19c-257.8-23.15-919.9-78.22-1216.91-62A108.38,108.38,0,0,0,1034.74,1033.66Z" transform="translate(-423.26 -455)"/><path class="cls-7" d="M1555.12,859.05h0a22.66,22.66,0,0,0,21.47,22.66c59.52,3.12,227.19,11.94,302.12,16.28a22.67,22.67,0,0,0,23.57-27l-.48-2.48a22.67,22.67,0,0,0-20.19-18.3c-50.65-4.64-203.49-17.51-304.75-13.9A22.64,22.64,0,0,0,1555.12,859.05Z" transform="translate(-423.26 -455)"/><path class="cls-8" d="M2221.81,2195.59l-1013.14-19.45c-33-.63-57.9,37.84-55.17,85.49,2.7,47.18,37.15,61.4,69.52,60.9l991.13,7.93c20.3-.31,38.41-30.14,40.64-66.88C2257,2226.54,2242.37,2196,2221.81,2195.59Z" transform="translate(-423.26 -455)"/><path class="cls-8" d="M2224.56,2506.35,1211.42,2486.9c-33-.64-57.91,37.84-55.18,85.49,2.7,47.17,37.15,61.39,69.53,60.9l991.12,7.93c20.31-.31,38.41-30.14,40.64-66.88C2259.78,2537.3,2245.11,2506.74,2224.56,2506.35Z" transform="translate(-423.26 -455)"/><path class="cls-9" d="M1789.57,2238.09l-549.83-5.71c-17.92-.19-31.4,10.13-29.9,22.93s20.19,16.51,37.76,16.39l537.88,2.61c11-.07,20.82-8.07,22-17.94S1800.73,2238.21,1789.57,2238.09Z" transform="translate(-423.26 -455)"/><path class="cls-10" d="M882.24,1901.06s-29.77,14.49-35.25,31.12c-4.39,13.35-37.31,15.07-40.57,41.33-1.68,13.55-11.71,24.41-25.21,26.48-33.62,5.15-85.45,22.62-93.74,81-6.33,44.56,16.39,61.46,40.23,67.31,17.51,4.3,29.15,21.33,25.61,39-3.4,17,1.67,36.56,31,52.06,65.84,34.74,131.58-82.3,131.58-82.3l13.47-204.34Z" transform="translate(-423.26 -455)"/><path class="cls-11" d="M1240.45,1852.62S1109,2060.52,952.71,2100.68c0,0,30.46,86.74,54,96.67,0,0,192.3-160.45,241.71-315.19Z" transform="translate(-423.26 -455)"/><path class="cls-12" d="M611.65,3182.36l-4.26,35A14.47,14.47,0,0,1,594.7,3230c-11.22,1.28-29.24,2.6-46.87.73a12.39,12.39,0,0,1-10.4-16.07c4.3-13.51,12.16-33.81,23.49-45.75h38.85A12,12,0,0,1,611.65,3182.36Z" transform="translate(-423.26 -455)"/><path class="cls-13" d="M915.93,2772.12l6.56,38.57s-22,222.42-25.87,311.39a69.75,69.75,0,0,0,10.32,39.62l38.18,62-97-57.26-1.93-11.84L862,3132.76l-20.81-249.17a76.49,76.49,0,0,1,8.7-42.28L870,2803.6Z" transform="translate(-423.26 -455)"/><path class="cls-14" d="M951.51,3232.68h-31a18.64,18.64,0,0,1-14.79-7.25c-9.66-12.55-29.66-37-39.22-37.66-12.88-.86-11.23,44.91-11.23,44.91h-7.22l-9.14-56.87a33.66,33.66,0,0,1,17.67-35.19h0s2.94,21.76,18.9,31.39,64.94,44.1,64.94,44.1a44.34,44.34,0,0,1,12.58.34C962.8,3218.21,961.44,3232.68,951.51,3232.68Z" transform="translate(-423.26 -455)"/><path class="cls-15" d="M783,2790.44s-128.64,244-149.09,299.72-27.61,102.19-27.88,106.59c-.43,6.88-9,13.48-32.56,13.48-12.17,0-18.13-4.88-21-9.6a13.73,13.73,0,0,1-.52-13.31c7.44-15.06,31.05-63.19,39.8-85,10.44-26.06,32.9-144.16,45.22-185.22s26.24-85.61,79.89-126.64C716.83,2790.44,753.65,2754.37,783,2790.44Z" transform="translate(-423.26 -455)"/><path class="cls-16" d="M864.28,2390.61c33.18-140.61-50.88-220.14-50.88-220.14,53-50.91,149.68-74.08,149.68-74.08s92.22,67.42,81.28,120.19c-6.41,30.93-64.82,185.26-64.82,185.26S925.53,2427.4,864.28,2390.61Z" transform="translate(-423.26 -455)"/><path class="cls-17" d="M790.71,2460.22c13.5-40.68,73.57-69.61,73.57-69.61,61.25,36.79,115.26,11.23,115.26,11.23s12.11,46.29,3.75,89.32-60.8,319.53-60.8,319.53c-82.65,16.75-209.75-16.85-209.75-16.85C765.38,2700.39,777.21,2500.9,790.71,2460.22Z" transform="translate(-423.26 -455)"/><path class="cls-18" d="M902.8,2003.47l-27,121.19c-2.58,10.67,7.15,8.92,17.94,6.89,17.67-3.33,40.45-10.2,48.06-24a12.77,12.77,0,0,0,1.38-4.56l11.59-84a15.1,15.1,0,0,0-8.83-15.87l-22.37-9.92A15.09,15.09,0,0,0,902.8,2003.47Z" transform="translate(-423.26 -455)"/><path class="cls-19" d="M954.47,1893s28.72,19.45,41.06,69-7.71,67.27-28.27,66.18-50.37-7.44-76.19-43S916.83,1869.25,954.47,1893Z" transform="translate(-423.26 -455)"/><path class="cls-20" d="M917.11,1965.21s-10.52-71,48.38-60.1l11.91,12.4s28.83-32.47-3.07-57-76.19-18.26-100.68,26.42-33.39,76.08-12.86,103.85,36,4,36,4-9.42-24-1.6-34.34,17.89,6,17.89,6Z" transform="translate(-423.26 -455)"/><path class="cls-21" d="M909.06,1971.28s-5.19-36.5-23.84-26.07,6.72,34.1,16.89,42.15Z" transform="translate(-423.26 -455)"/><path class="cls-22" d="M1239.55,1895.42c.4,4.29-15.55,7.25-20.63-11,1.4-7.94,3.88-42.7,10-48.1,32.42-28.76,90.22-61.11,90.22-61.11,6.46,9.87-2,16.37-2,16.37L1288.23,1811c3,10,7.4,18.78,7.9,30.16a33.78,33.78,0,0,1-8.53,23.6c-5.74,6.56-13.47,15-20.44,21.46C1254,1898.41,1239.55,1895.42,1239.55,1895.42Z" transform="translate(-423.26 -455)"/><path class="cls-23" d="M1255.21,1881.24l-4.38-1.8c.59-1.43,14.43-35.07,21.13-42.06,2.54-2.66,3.78-4.94,3.66-6.78a4.85,4.85,0,0,0-1.5-3l-23.36,12.5-10.32,16.15-4-2.55,11-17.19,27.34-14.61,1.21,1c2.77,2.26,4.19,4.68,4.36,7.42.2,3.25-1.42,6.63-5,10.34C1270.33,1845.92,1259.11,1871.74,1255.21,1881.24Z" transform="translate(-423.26 -455)"/><path class="cls-24" d="M813.4,2170.47S664.05,2477.12,610,2503.93c0,0-54.91,5.74-88.52,15.9-8.46,2.56-8.17,14.57.35,16.89,23.4,6.38,62.18,11.72,97.72-7.57,0,0-19.09,28.61-8,39.76,0,0,25.46-30.22,35-39.76C655,2520.74,807.9,2354,872.2,2253.44c5.2-8.13,1.59-32.27-2-41.22C861.88,2191.64,843.45,2158.78,813.4,2170.47Z" transform="translate(-423.26 -455)"/><circle class="cls-8" cx="1305.66" cy="1088.58" r="447.99"/><path class="cls-25" d="M1874.22,1382.31c0,76.43-62,158.94-138.4,158.94s-138.39-82.51-138.39-158.94,62-130.66,138.39-130.66S1874.22,1305.87,1874.22,1382.31Z" transform="translate(-423.26 -455)"/><path class="cls-26" d="M1564.08,1835.52h337.84a81.76,81.76,0,0,0,77.88-56.85l18.18-56.82c13.31-41.61-8.33-86.65-49.35-101.65-137.49-50.27-279.66-43.82-425.29,4.64-40.8,13.58-63.44,57.22-52.19,98.72l14,51.6A81.78,81.78,0,0,0,1564.08,1835.52Z" transform="translate(-423.26 -455)"/><path class="cls-27" d="M1308.51,2559a36.94,36.94,0,0,1-37.1,35.65,35.15,35.15,0,0,1-34.85-36.49,36.92,36.92,0,0,1,37.17-35.64A35.15,35.15,0,0,1,1308.51,2559Z" transform="translate(-423.26 -455)"/><path class="cls-28" d="M1443.11,2560.56a36.7,36.7,0,0,1-36.8,35.5,34.93,34.93,0,0,1-34.57-36.33,36.72,36.72,0,0,1,36.88-35.51A34.94,34.94,0,0,1,1443.11,2560.56Z" transform="translate(-423.26 -455)"/><path class="cls-29" d="M1587.42,2562.94a36.94,36.94,0,0,1-37.1,35.65,35.16,35.16,0,0,1-34.86-36.49,36.94,36.94,0,0,1,37.18-35.65A35.15,35.15,0,0,1,1587.42,2562.94Z" transform="translate(-423.26 -455)"/><path class="cls-30" d="M1872.83,2566.33a36.71,36.71,0,0,1-36.8,35.51,34.94,34.94,0,0,1-34.57-36.34,36.7,36.7,0,0,1,36.88-35.5A34.93,34.93,0,0,1,1872.83,2566.33Z" transform="translate(-423.26 -455)"/><path class="cls-31" d="M2017.14,2568.71a36.94,36.94,0,0,1-37.1,35.65,35.16,35.16,0,0,1-34.86-36.49,36.93,36.93,0,0,1,37.18-35.64A35.15,35.15,0,0,1,2017.14,2568.71Z" transform="translate(-423.26 -455)"/><path class="cls-32" d="M1722,2564.51a36.71,36.71,0,0,1-36.8,35.5,34.94,34.94,0,0,1-34.57-36.34,36.71,36.71,0,0,1,36.88-35.5A34.94,34.94,0,0,1,1722,2564.51Z" transform="translate(-423.26 -455)"/><path class="cls-33" d="M463.82,1563.85a3.53,3.53,0,0,1-3.3-1.9c-2.12-4.13-4.2-8.37-6.16-12.61a3.44,3.44,0,0,1,1.77-4.58c4.31-1.94,5,2.9,10.72,14.07a3.43,3.43,0,0,1-1.58,4.65A3.62,3.62,0,0,1,463.82,1563.85Z" transform="translate(-423.26 -455)"/><path class="cls-33" d="M438.64,1508.6c-2.66-8.51-5-17.23-7-25.92a3.47,3.47,0,0,1,2.69-4.14c5.21-1.1,3.22,2.94,11.07,28a3.45,3.45,0,0,1-2.35,4.32A3.55,3.55,0,0,1,438.64,1508.6Zm-13.89-68.94c-.85-8.92-1.36-18-1.49-26.78-.08-4.7,7-4.63,7.08-.12.14,8.72.63,17.51,1.46,26.24a3.54,3.54,0,0,1-7.05.66Zm.62-70.29c1-8.84,2.4-17.77,4.12-26.52.89-4.51,7.83-3.19,6.95,1.3-1.68,8.57-3,17.31-4,26C431.89,1374.69,424.85,1373.92,425.37,1369.37ZM442.94,1305a3.43,3.43,0,0,1-2.26-4.36c2.85-8.46,6.08-16.93,9.59-25.16,1.81-4.23,8.35-1.57,6.54,2.66-3.45,8.06-6.61,16.36-9.4,24.65A3.55,3.55,0,0,1,442.94,1305Zm28.41-63.88a3.4,3.4,0,0,1-1.3-4.72c4.55-7.73,9.46-15.37,14.61-22.73,2.66-3.77,8.49.12,5.84,3.91-5,7.2-9.86,14.69-14.32,22.27A3.58,3.58,0,0,1,471.35,1241.13Zm43.54-56.05a3.6,3.6,0,0,1-2.49-.87,3.41,3.41,0,0,1-.29-4.89c6.06-6.67,12.45-13.18,19-19.36a3.59,3.59,0,0,1,5,.08,3.41,3.41,0,0,1-.09,4.9c-6.42,6-12.69,12.44-18.63,19A3.58,3.58,0,0,1,514.89,1185.08ZM567.35,1138a3.53,3.53,0,0,1-3-1.38,3.42,3.42,0,0,1,.72-4.85c7.31-5.32,14.92-10.43,22.62-15.19a3.59,3.59,0,0,1,4.89,1.08,3.43,3.43,0,0,1-1.11,4.78c-7.55,4.65-15,9.66-22.17,14.88A3.52,3.52,0,0,1,567.35,1138Zm57.8-37.69a3.43,3.43,0,0,1,1.72-4.6c8.26-3.75,16.78-7.23,25.33-10.35,4.4-1.59,6.84,4.89,2.46,6.49-8.38,3-16.72,6.46-24.81,10.14A3.57,3.57,0,0,1,625.15,1100.28Zm237.75-18.75c-25.78-6.63-30.06-4.53-29.09-9.7a3.54,3.54,0,0,1,4.11-2.79c9,1.58,18,3.53,26.79,5.8C869.23,1076,867.43,1082.69,862.9,1081.53Zm-170.67-4.63a3.46,3.46,0,0,1,2.65-4.16c8.86-2,17.92-3.74,26.94-5.09,4.63-.69,5.68,6.15,1.06,6.84-8.83,1.33-17.72,3-26.4,5A3.54,3.54,0,0,1,692.23,1076.9Zm101-5.93c-26.56-1.32-30.38,1.59-30.52-3.67-.08-3.34,3.84-3.74,3.45-3.56,9.13-.24,18.37-.13,27.44.32a3.47,3.47,0,0,1,3.35,3.63A3.51,3.51,0,0,1,793.28,1071Z" transform="translate(-423.26 -455)"/><path class="cls-33" d="M917.37,1100.49c-10.84-4.82-16.62-5.56-14.81-9.92a3.58,3.58,0,0,1,4.62-1.91c11.42,4.53,16.8,6,14.88,10.1A4,4,0,0,1,917.37,1100.49Z" transform="translate(-423.26 -455)"/><path class="cls-33" d="M1103,1296.66a3.52,3.52,0,0,1-3.47-2.3c-1.56-4.3-3.22-8.61-4.94-12.82a3.44,3.44,0,0,1,2-4.5,3.57,3.57,0,0,1,4.6,1.93c1.76,4.29,3.45,8.69,5,13.07a3.52,3.52,0,0,1-3.2,4.62Z" transform="translate(-423.26 -455)"/><path class="cls-33" d="M778,1750.79c-9.81.12-19.75-.17-29.53-.86a3.48,3.48,0,0,1-3.27-3.7c.41-5.37,4-2,32.73-2.36a3.48,3.48,0,0,1,3.57,3.42C781.57,1750.63,777.65,1751,778,1750.79Zm43.81-6.65c-.79-5.32,3.6-2.86,31.42-9.24a3.54,3.54,0,0,1,4.26,2.57,3.47,3.47,0,0,1-2.65,4.17c-9.52,2.18-19.28,4-29,5.41A3.53,3.53,0,0,1,821.84,1744.14ZM701,1743.37c-9.58-2-19.2-4.42-28.6-7.2a3.43,3.43,0,0,1-2.35-4.31c1.6-5.16,4.34-1.11,32.44,4.73a3.46,3.46,0,0,1,2.72,4.11A3.56,3.56,0,0,1,701,1743.37Zm198.6-15.31a3.54,3.54,0,0,1-3.44-2.22,3.43,3.43,0,0,1,2-4.47c9-3.39,17.92-7.18,26.56-11.28a3.58,3.58,0,0,1,4.73,1.6,3.44,3.44,0,0,1-1.65,4.63c-8.81,4.18-17.93,8-27.1,11.51A3.85,3.85,0,0,1,899.6,1728.06Zm68-34.48a3.6,3.6,0,0,1-3.09-1.54,3.42,3.42,0,0,1,1-4.8c8-5.21,15.85-10.83,23.38-16.7a3.6,3.6,0,0,1,5,.55,3.41,3.41,0,0,1-.57,4.86c-7.68,6-15.71,11.72-23.86,17A3.75,3.75,0,0,1,967.63,1693.58Zm58.68-48.23a3.54,3.54,0,0,1-2.59-.95,3.41,3.41,0,0,1-.11-4.89c6.64-6.8,13.07-14,19.1-21.28a3.6,3.6,0,0,1,5-.53,3.4,3.4,0,0,1,.54,4.86c-6.17,7.48-12.73,14.78-19.5,21.72A3.54,3.54,0,0,1,1026.31,1645.35Zm46.55-59.56a3.59,3.59,0,0,1-2-.49,3.42,3.42,0,0,1-1.2-4.75c5-8,9.66-16.4,13.92-24.83a3.58,3.58,0,0,1,4.74-1.58,3.42,3.42,0,0,1,1.61,4.64c-4.35,8.6-9.13,17.13-14.2,25.34A3.55,3.55,0,0,1,1072.86,1585.79Zm30.91-68.21c-5.21-1.7-1-4.26,5.78-31.58,1.1-4.45,8-2.84,6.88,1.62-2.31,9.32-5.06,18.66-8.18,27.76A3.56,3.56,0,0,1,1103.77,1517.58Zm16.86-73.13c-5.47-.52-2-3.89-1.49-32,.08-4.56,7.16-4.49,7.08.1-.15,9.6-.73,19.29-1.71,28.82A3.53,3.53,0,0,1,1120.63,1444.45Zm-.28-74.87a3.49,3.49,0,0,1-3.64-3c-1.15-9.37-2.71-18.76-4.63-27.92a3.47,3.47,0,0,1,2.76-4.09,3.54,3.54,0,0,1,4.18,2.69c2,9.34,3.55,18.93,4.72,28.49a3.48,3.48,0,0,1-3.1,3.85Z" transform="translate(-423.26 -455)"/><path class="cls-33" d="M627.36,1719.44c-11.21-5-16.5-6.74-14.39-10.76,2.2-4.18,5.89-.7,17.36,4.47a3.43,3.43,0,0,1,1.73,4.6A3.58,3.58,0,0,1,627.36,1719.44Z" transform="translate(-423.26 -455)"/><path class="cls-34" d="M628.71,1623.58l43.8-25.29a224.94,224.94,0,0,0,68.23,21.55c20.66,43.8,19,48.34,24.44,47.91L826,1663a4.18,4.18,0,0,0,3.71-3.06l12.72-48.09a223.6,223.6,0,0,0,63.9-32l47.3,18.09a4.25,4.25,0,0,0,4.71-1.15l39.58-45.4a4,4,0,0,0,.42-4.73l-25.79-42.76a213.57,213.57,0,0,0,22.16-66.73l46.57-19.91a4.08,4.08,0,0,0,2.5-4.07l-4.81-59.4a4.1,4.1,0,0,0-3.12-3.63l-49.17-12.35A214.09,214.09,0,0,0,954,1275.38c17.2-45.57,21.54-47.44,17.42-50.87-46.15-37.07-46.41-41.78-51.2-39l-43.8,25.29a224.48,224.48,0,0,0-68.23-21.55c-20.65-43.78-19-48.34-24.45-47.91-60.3,5.81-63.13,2.68-64.49,7.85l-12.73,48.09a223.81,223.81,0,0,0-63.89,32c-46-16.52-48.44-21-52-16.93-38.38,45.61-42.79,45.5-40,50.12l25.79,42.77a213.19,213.19,0,0,0-22.17,66.72c-44.06,19.93-49.5,18.56-49.06,24,5.81,58.67,2.6,61.68,7.92,63l49.18,12.35a214.48,214.48,0,0,0,32.61,62.4c-17.14,45.41-21.55,47.42-17.41,50.87C623.66,1621.64,623.91,1626.35,628.71,1623.58Z" transform="translate(-423.26 -455)"/><path class="cls-35" d="M718.16,1423.25c-10.5-30.33,6.22-63.4,37.27-73.72s64.86,6,75.36,36.29-6.21,63.41-37.26,73.73h0C762.47,1469.87,728.66,1453.58,718.16,1423.25Zm73.67,31.38h0Zm-33-95.27c-25.2,8.37-39.36,35.26-30.6,60.55,8.62,24.91,36.39,38.29,61.89,29.81s39.24-35.64,30.61-60.55S784.29,1350.89,758.83,1359.36Z" transform="translate(-423.26 -455)"/><path class="cls-35" d="M781,1552.38h0a155.85,155.85,0,0,1-26.21-1.16,5.22,5.22,0,0,1-4.6-4.93,4.59,4.59,0,0,1,0-.9,5.3,5.3,0,0,1,6-4.46,146.33,146.33,0,0,0,30.19.73h0c76-6,133.43-69.85,130.53-143.65-.07-1.89-.19-3.78-.34-5.67-6.2-76.65-74.71-133.12-152.54-127s-136.34,72.88-130.19,149.33c3.68,45.5,26.57,67.39,26.75,72.16.21,5.15-6.58,7.41-9.63,3.23a146.51,146.51,0,0,1-28.08-80.65c-5.07-129.27,150.65-203.19,251.28-119.41,31,25.78,49.79,61.82,53,101.49q.25,3.07.37,6.15A146.12,146.12,0,0,1,891.18,1500a152.92,152.92,0,0,1-103.93,52Q784.15,1552.27,781,1552.38Z" transform="translate(-423.26 -455)"/><path class="cls-36" d="M1072.68,1156a122.81,122.81,0,0,0,38.79,9.25l13.32,24.9c1.48,2.76,3.31.46,35.88-4.18,3-.48,1.48-2.73,6.78-29.7a123.47,123.47,0,0,0,34-20.92l27,8.19c3,.91,2.67-2,22.42-28.32a2.31,2.31,0,0,0,0-2.69l-16.24-23.12a123.13,123.13,0,0,0,9.24-38.79c23.53-13.23,26.58-12.69,26.1-15.74-5.9-33-4.26-34.86-7.27-35.38l-27.81-4.86A123.23,123.23,0,0,0,1214,960.72l8.19-27c.91-3-2-2.68-28.32-22.42-2.44-1.77-2.88.81-25.81,16.22a123.13,123.13,0,0,0-38.79-9.24l-13.32-24.9c-1.48-2.77-3.32-.47-35.88,4.17-3,.48-1.46,2.6-6.78,29.71a123,123,0,0,0-34,20.92l-27-8.2a2.34,2.34,0,0,0-2.56.86l-19.86,27.46a2.33,2.33,0,0,0,0,2.7l16.24,23.12a123.07,123.07,0,0,0-9.24,38.79c-23.53,13.23-26.59,12.69-26.1,15.74,5.9,33,4.26,34.85,7.27,35.38l27.81,4.86a123.23,123.23,0,0,0,20.92,34c-7.29,26-9.84,27.78-7.33,29.59l27.46,19.87C1049.32,1174,1049.86,1171.36,1072.68,1156Z" transform="translate(-423.26 -455)"/><path class="cls-35" d="M1087.87,1055.74a35.37,35.37,0,1,1,46.47,18.5h0A35.41,35.41,0,0,1,1087.87,1055.74Zm44.38,13.66h0Zm-34.69-17.83a24.85,24.85,0,0,0,32.61,13h0c20.19-8.69,19.87-37.7-.62-45.86S1088.81,1031.25,1097.56,1051.57Z" transform="translate(-423.26 -455)"/><path class="cls-33" d="M986.2,1169.46c-3.27-3.43-6.46-7-9.46-10.75a3.51,3.51,0,0,1,.5-4.94c3.79-3.08,5.61,2,14,10.85a3.51,3.51,0,0,1-5.09,4.84Z" transform="translate(-423.26 -455)"/><path class="cls-33" d="M952,1118.81a188.28,188.28,0,0,1-10-27.17c-1.26-4.49,5.51-6.36,6.76-1.9,6.94,24.7,13.21,28.36,7.86,30.8A3.51,3.51,0,0,1,952,1118.81Zm-13.24-70.2a3.5,3.5,0,0,1-3.58-3.44,185.07,185.07,0,0,1,1.74-28.9c.65-4.6,7.61-3.64,7,1a177.18,177.18,0,0,0-1.68,27.8A3.57,3.57,0,0,1,938.73,1048.61Zm13.87-72.79a3.53,3.53,0,0,1-3.39-4.86,187.17,187.17,0,0,1,13.11-25.8,3.51,3.51,0,1,1,6,3.66,179.16,179.16,0,0,0-12.6,24.83A3.52,3.52,0,0,1,952.6,975.82Zm41.63-61.28a3.52,3.52,0,0,1-2.59-6A184.08,184.08,0,0,1,1014,890.09a3.51,3.51,0,0,1,4,5.75,177.9,177.9,0,0,0-21.48,17.71A3.47,3.47,0,0,1,994.23,914.54Zm59.24-41.78a3.51,3.51,0,0,1,2.06-4.52,186.24,186.24,0,0,1,27.82-8c4.53-1,6,5.95,1.41,6.88a178.38,178.38,0,0,0-26.76,7.72A3.52,3.52,0,0,1,1053.47,872.76Z" transform="translate(-423.26 -455)"/><path class="cls-33" d="M1143.7,865.05c-12.78-1.7-17.29-.25-17-5a3.48,3.48,0,0,1,3.7-3.32c4.72.26,9.52.71,14.25,1.34a3.51,3.51,0,0,1-.92,7Z" transform="translate(-423.26 -455)"/><path class="cls-33" d="M1267.56,941.25c-7.29-10.69-11.36-13-7.65-16a3.51,3.51,0,0,1,4.94.55c3,3.69,5.82,7.57,8.51,11.51a3.51,3.51,0,1,1-5.8,4Z" transform="translate(-423.26 -455)"/><path class="cls-33" d="M1144.16,1221.93c-.89-5.77,5.41-2.57,29.62-10.21,4.41-1.4,6.55,5.3,2.11,6.7a184,184,0,0,1-27.73,6.45A3.5,3.5,0,0,1,1144.16,1221.93Zm68.88-23.87a3.5,3.5,0,0,1,1.15-4.83c21.78-13.45,23.25-20.21,27.07-15.76a3.52,3.52,0,0,1-.39,5,184.74,184.74,0,0,1-23,16.78A3.53,3.53,0,0,1,1213,1198.06Zm54-49c-4.79-3.37,1.84-5.63,13.11-28.46,2.06-4.16,8.36-1.06,6.3,3.11a186.46,186.46,0,0,1-14.51,24.49A3.53,3.53,0,0,1,1267,1149.1Zm30.38-66.27c-5.73-1.22-.5-5.91.92-31.31.26-4.63,7.28-4.25,7,.39a185.37,185.37,0,0,1-3.77,28.22A3.51,3.51,0,0,1,1297.39,1082.83Zm-2.19-75.63c-5-25.09-10.8-28.87-5.28-30.88a3.5,3.5,0,0,1,4.5,2.1,185.39,185.39,0,0,1,7.68,27.41,3.52,3.52,0,0,1-6.9,1.37Z" transform="translate(-423.26 -455)"/><path class="cls-33" d="M1101.81,1226c-4.73-.48-9.5-1.16-14.18-2a3.5,3.5,0,0,1-2.83-4.08c.87-4.81,5.52-2.15,17.72-.91a3.51,3.51,0,0,1-.71,7Z" transform="translate(-423.26 -455)"/><path class="cls-35" d="M1116.23,1128.09a5.27,5.27,0,1,1,.35-10.53,78.08,78.08,0,0,0,16.28-.87,76.4,76.4,0,0,0,49.86-30.7c39.77-55-7-131.17-74.11-120.39a76.62,76.62,0,0,0-64.34,78.5c1.51,38.39,26,46.32,17.2,53.66a5.26,5.26,0,0,1-7.42-.64,87.07,87.07,0,1,1,80.47,30h0A87.63,87.63,0,0,1,1116.23,1128.09Z" transform="translate(-423.26 -455)"/></g></svg>