<svg xmlns="http://www.w3.org/2000/svg" viewBox="0 0 456.55 463.99"><defs><style>.cls-1{fill:#f5f5f5;}.cls-2{fill:#e0e0e0;}.cls-3{fill:#ba68c8;}.cls-16,.cls-17,.cls-18,.cls-20,.cls-4,.cls-5,.cls-6,.cls-7{fill:#fff;}.cls-4,.cls-9{opacity:0.5;}.cls-5{opacity:0.8;}.cls-6{opacity:0.9;}.cls-7{opacity:0.7;}.cls-8{fill:#263238;}.cls-10,.cls-18{opacity:0.6;}.cls-11{fill:#37474f;}.cls-12{fill:#455a64;}.cls-13,.cls-16{opacity:0.2;}.cls-14,.cls-17{opacity:0.4;}.cls-15{fill:#e6e6e6;}.cls-19{fill:#f0f0f0;}.cls-21{fill:#fafafa;}.cls-22{fill:#945959;}.cls-23{fill:#703838;}</style></defs><g id="Floor"><ellipse class="cls-1" cx="228.27" cy="332.19" rx="228.27" ry="131.79"/></g><g id="Shadows"><ellipse class="cls-2" cx="194.54" cy="286.76" rx="46.74" ry="26.99"/><path class="cls-2" d="M401.18,388c25.13,14.51,25.13,38,0,52.54s-65.88,14.52-91,0-25.13-38,0-52.55S376.05,373.47,401.18,388Z" transform="translate(-26.31 -24.37)"/><path class="cls-2" d="M166.48,292.61l132,76.19a3.46,3.46,0,0,1,0,6l-77.88,45a10.61,10.61,0,0,1-10.62,0L78,343.56a3.45,3.45,0,0,1,0-6l77.89-45A10.59,10.59,0,0,1,166.48,292.61Z" transform="translate(-26.31 -24.37)"/><path class="cls-2" d="M115.61,349.3l91.48,54.39a2.18,2.18,0,0,1,0,3.76l-49,28.27a6.7,6.7,0,0,1-6.68,0L60,381.33a2.17,2.17,0,0,1,0-3.76l49-28.27A6.68,6.68,0,0,1,115.61,349.3Z" transform="translate(-26.31 -24.37)"/><path class="cls-2" d="M283.7,238.21l157,90.6a7.33,7.33,0,0,0,7.33,0l9.86-5.69a2.53,2.53,0,0,0,0-4.39L301,228.19a7.49,7.49,0,0,0-7.52,0l-9.76,5.63A2.53,2.53,0,0,0,283.7,238.21Z" transform="translate(-26.31 -24.37)"/></g><g id="Tasks"><path class="cls-3" d="M295.29,233.61l152.56,88.08a3.59,3.59,0,0,0,5.39-3.1V117.65a9.79,9.79,0,0,0-4.89-8.46L302.58,25a4.86,4.86,0,0,0-7.29,4.21Z" transform="translate(-26.31 -24.37)"/><path class="cls-4" d="M295.29,233.61l152.56,88.08a3.59,3.59,0,0,0,5.39-3.1V117.65a9.79,9.79,0,0,0-4.89-8.46L302.58,25a4.86,4.86,0,0,0-7.29,4.21Z" transform="translate(-26.31 -24.37)"/><polygon class="cls-3" points="273.3 218.46 413.19 299.23 413.19 95.04 273.3 14.27 273.3 218.46"/><polygon class="cls-5" points="273.3 218.46 413.19 299.23 413.19 95.04 273.3 14.27 273.3 218.46"/><polygon class="cls-3" points="259.64 202.15 399.53 282.92 413.19 95.04 273.3 14.27 259.64 202.15"/><polygon class="cls-6" points="259.64 202.15 399.53 282.92 413.19 95.04 273.3 14.27 259.64 202.15"/><polygon class="cls-3" points="273.3 14.27 413.19 95.04 418.49 91.97 278.6 11.21 273.3 14.27"/><polygon class="cls-7" points="273.3 14.27 413.19 95.04 418.49 91.97 278.6 11.21 273.3 14.27"/><polygon class="cls-3" points="418.49 91.97 418.49 295.39 413.19 299.23 413.19 95.04 418.49 91.97"/><polygon class="cls-3" points="418.49 91.97 418.49 295.39 413.19 299.23 413.19 95.04 418.49 91.97"/><polygon class="cls-7" points="418.49 91.97 418.49 295.39 413.19 299.23 413.19 95.04 418.49 91.97"/><path class="cls-3" d="M401,145.91a1.5,1.5,0,0,1-.37,0,1.41,1.41,0,0,1-.94-.84l-4.16-10.45a1.41,1.41,0,0,1,.79-1.82,1.39,1.39,0,0,1,1.82.78l3.46,8.69,19.91-15.81a1.4,1.4,0,0,1,2,.22,1.42,1.42,0,0,1-.22,2l-21.39,17A1.39,1.39,0,0,1,401,145.91Z" transform="translate(-26.31 -24.37)"/><path class="cls-3" d="M377.75,123.38a1.46,1.46,0,0,1-.7-.18l-58.9-34a1.4,1.4,0,0,1,1.41-2.43l58.9,34a1.4,1.4,0,0,1-.71,2.62Z" transform="translate(-26.31 -24.37)"/><path class="cls-3" d="M376.4,135.47a1.37,1.37,0,0,1-.7-.19l-58.9-34a1.4,1.4,0,0,1,1.41-2.43l58.9,34a1.4,1.4,0,0,1-.71,2.62Z" transform="translate(-26.31 -24.37)"/><path class="cls-3" d="M410.39,161.22a3.7,3.7,0,0,1-1.82-.48l-18.21-10.07a7.75,7.75,0,0,1-4-7.43l1.73-20.31a3.77,3.77,0,0,1,5.62-2.93l19.15,11.06a5.65,5.65,0,0,1,2.79,5.26l-1.56,21.41a3.72,3.72,0,0,1-1.95,3A3.81,3.81,0,0,1,410.39,161.22Zm-18.51-38.91a.95.95,0,0,0-.95.86l-1.73,20.31a4.92,4.92,0,0,0,2.52,4.73l18.21,10.08a1,1,0,0,0,.91,0,.94.94,0,0,0,.49-.76l1.56-21.41a2.82,2.82,0,0,0-1.39-2.62h0l-19.16-11.06A.85.85,0,0,0,391.88,122.31Z" transform="translate(-26.31 -24.37)"/><path class="cls-3" d="M373.59,173.42a1.39,1.39,0,0,1-.7-.19l-58.9-34a1.4,1.4,0,0,1,1.41-2.43l58.9,34a1.4,1.4,0,0,1-.71,2.62Z" transform="translate(-26.31 -24.37)"/><path class="cls-3" d="M372.24,185.5a1.39,1.39,0,0,1-.7-.19l-58.9-34a1.4,1.4,0,0,1,1.41-2.43l58.9,34a1.4,1.4,0,0,1-.71,2.62Z" transform="translate(-26.31 -24.37)"/><path class="cls-3" d="M406.23,211.25a3.83,3.83,0,0,1-1.82-.47L386.2,200.7a7.74,7.74,0,0,1-4-7.43L384,173a3.76,3.76,0,0,1,5.62-2.93l19.15,11.06h0a5.63,5.63,0,0,1,2.79,5.25L410,207.77a3.76,3.76,0,0,1-3.74,3.48Zm-18.51-38.91a1,1,0,0,0-.44.11.93.93,0,0,0-.51.76L385,193.51a4.92,4.92,0,0,0,2.52,4.73l18.21,10.08a.91.91,0,0,0,.91,0,.9.9,0,0,0,.49-.76l1.56-21.41a2.82,2.82,0,0,0-1.39-2.62l-19.16-11.06A.85.85,0,0,0,387.72,172.34Z" transform="translate(-26.31 -24.37)"/><path class="cls-3" d="M397.37,195.48a1.57,1.57,0,0,1-.37,0,1.41,1.41,0,0,1-.94-.84l-4.16-10.44a1.4,1.4,0,0,1,2.61-1L398,191.8,417.88,176a1.41,1.41,0,0,1,1.75,2.2l-21.39,17A1.4,1.4,0,0,1,397.37,195.48Z" transform="translate(-26.31 -24.37)"/><path class="cls-3" d="M369.44,223.45a1.37,1.37,0,0,1-.7-.19l-58.91-34a1.41,1.41,0,0,1,1.41-2.44l58.9,34a1.4,1.4,0,0,1-.7,2.62Z" transform="translate(-26.31 -24.37)"/><path class="cls-3" d="M368.09,235.54a1.43,1.43,0,0,1-.71-.19l-58.9-34a1.4,1.4,0,1,1,1.41-2.43l58.9,34a1.41,1.41,0,0,1-.7,2.63Z" transform="translate(-26.31 -24.37)"/><path class="cls-3" d="M402.07,261.28a3.65,3.65,0,0,1-1.81-.47L382,250.73a7.75,7.75,0,0,1-4-7.43l1.74-20.3a3.72,3.72,0,0,1,2-3,3.76,3.76,0,0,1,3.61.08l19.15,11.06h0a5.64,5.64,0,0,1,2.78,5.26l-1.56,21.41a3.74,3.74,0,0,1-1.95,3A3.8,3.8,0,0,1,402.07,261.28Zm-18.51-38.9a1,1,0,0,0-.44.1,1,1,0,0,0-.51.76l-1.73,20.3a4.91,4.91,0,0,0,2.52,4.73l18.22,10.08a.93.93,0,0,0,1.39-.75l1.56-21.42a2.8,2.8,0,0,0-1.39-2.62L384,222.5A1,1,0,0,0,383.56,222.38Z" transform="translate(-26.31 -24.37)"/><path class="cls-3" d="M401.09,107.85a6,6,0,0,1-3-.79L373,92.89a1.39,1.39,0,0,1-.61-.7,16,16,0,0,0-6.19-7.63c-1-.6-3.62-1.79-5,.22a1.42,1.42,0,0,1-1.84.41L337.74,73.05a8,8,0,0,1-4-6.92V50.75a8.74,8.74,0,0,1,5.08-7.93,1.4,1.4,0,0,1,1.29.06l69.46,40.36a1.4,1.4,0,0,1-.14,2.5,3.71,3.71,0,0,0-2.22,3.4v12.62a6,6,0,0,1-3,5.25A6.09,6.09,0,0,1,401.09,107.85ZM374.76,90.68l24.72,13.93a3.27,3.27,0,0,0,4.88-2.85V89.14a6.51,6.51,0,0,1,1.87-4.57L339.33,45.7a6,6,0,0,0-2.82,5V66.13a5.14,5.14,0,0,0,2.61,4.47l20.57,11.59c1.95-1.72,4.9-1.78,7.88-.06A18.44,18.44,0,0,1,374.76,90.68Z" transform="translate(-26.31 -24.37)"/></g><g id="Chair"><path class="cls-8" d="M228.11,268.36l-12,73.38a2.29,2.29,0,0,1-2.26,1.92h0a2.29,2.29,0,0,1-2.28-2.54l8.44-75.7Z" transform="translate(-26.31 -24.37)"/><path class="cls-8" d="M186.6,243.68l-12,73.38a2.28,2.28,0,0,1-2.25,1.92h0a2.29,2.29,0,0,1-2.28-2.54l8.44-75.71Z" transform="translate(-26.31 -24.37)"/><path class="cls-8" d="M246.57,251.2l11.87,63.24a1.93,1.93,0,0,0,3.8-.64l-8.76-58.61Z" transform="translate(-26.31 -24.37)"/><path class="cls-8" d="M204.59,227.61l11.8,62.85a1.92,1.92,0,0,0,1.9,1.57,1.94,1.94,0,0,0,1.91-2.21l-8.7-58.23Z" transform="translate(-26.31 -24.37)"/><path class="cls-3" d="M208,222.83A16.86,16.86,0,0,0,218,209.1c1.91-19.25,8.69-58.93,31.68-45.72,28.36,16.3,18.2,63.65,14.08,78.83a20.46,20.46,0,0,1-5.21,9.06c-5.13,5.17-15.74,14.06-33.78,21.62a10.56,10.56,0,0,1-7,.42c-9-2.55-32.38-10.4-44.06-25.33a4.07,4.07,0,0,1,.68-5.7C179.08,238.52,189.76,231,208,222.83Z" transform="translate(-26.31 -24.37)"/><path class="cls-9" d="M208,222.83A16.86,16.86,0,0,0,218,209.1c1.91-19.25,8.69-58.93,31.68-45.72,28.36,16.3,18.2,63.65,14.08,78.83a20.46,20.46,0,0,1-5.21,9.06c-5.13,5.17-15.74,14.06-33.78,21.62a10.56,10.56,0,0,1-7,.42c-9-2.55-32.38-10.4-44.06-25.33a4.07,4.07,0,0,1,.68-5.7C179.08,238.52,189.76,231,208,222.83Z" transform="translate(-26.31 -24.37)"/><path class="cls-3" d="M172.83,245.27a4,4,0,0,0,.84,2.71c.63.8,1.29,1.57,2,2.33h0c.37.41.76.82,1.15,1.22l0,0c.39.4.79.79,1.19,1.17l0,0,1.23,1.14,0,0c.42.38.85.75,1.28,1.12h0c6.62,5.56,14.66,9.79,21.84,12.85h0l1.33.55.14.06,1.22.49.22.09,1.14.45.26.1,1.07.4.3.11c.34.13.66.25,1,.36l.35.13.91.32.38.13.84.29.4.14.76.25.43.14.69.22.46.15.59.18.5.16.49.15.61.18.31.09.86.25a10.56,10.56,0,0,0,7-.42c18-7.56,28.65-16.45,33.78-21.62a20.46,20.46,0,0,0,5.21-9.06c4.12-15.18,14.28-62.53-14.08-78.83-.51-.29-1-.55-1.49-.78a3.18,3.18,0,0,0-.32-.16c-.48-.23-.95-.43-1.41-.61l-.14-.05c-.45-.17-.88-.31-1.32-.44l-.2-.06c-.46-.13-.92-.23-1.37-.32h-.12a12.74,12.74,0,0,0-2.72-.2h0a10.86,10.86,0,0,0-2.57.4h0c4.53-2,10.06-1.91,15.54,1.24,28.37,16.3,18.21,63.64,14.09,78.83l-.7,2.6A24.67,24.67,0,0,1,258,257.06l-7.36,5.63h0a115.82,115.82,0,0,1-25.89,14.74,10.62,10.62,0,0,1-7,.43c-9-2.55-32.39-10.39-44.07-25.33a4,4,0,0,1-.84-2.22h0v-5Z" transform="translate(-26.31 -24.37)"/><path class="cls-10" d="M172.83,245.27a4,4,0,0,0,.84,2.71c.63.8,1.29,1.57,2,2.33h0c.37.41.76.82,1.15,1.22l0,0c.39.4.79.79,1.19,1.17l0,0,1.23,1.14,0,0c.42.38.85.75,1.28,1.12h0c6.62,5.56,14.66,9.79,21.84,12.85h0l1.33.55.14.06,1.22.49.22.09,1.14.45.26.1,1.07.4.3.11c.34.13.66.25,1,.36l.35.13.91.32.38.13.84.29.4.14.76.25.43.14.69.22.46.15.59.18.5.16.49.15.61.18.31.09.86.25a10.56,10.56,0,0,0,7-.42c18-7.56,28.65-16.45,33.78-21.62a20.46,20.46,0,0,0,5.21-9.06c4.12-15.18,14.28-62.53-14.08-78.83-.51-.29-1-.55-1.49-.78a3.18,3.18,0,0,0-.32-.16c-.48-.23-.95-.43-1.41-.61l-.14-.05c-.45-.17-.88-.31-1.32-.44l-.2-.06c-.46-.13-.92-.23-1.37-.32h-.12a12.74,12.74,0,0,0-2.72-.2h0a10.86,10.86,0,0,0-2.57.4h0c4.53-2,10.06-1.91,15.54,1.24,28.37,16.3,18.21,63.64,14.09,78.83l-.7,2.6A24.67,24.67,0,0,1,258,257.06l-7.36,5.63h0a115.82,115.82,0,0,1-25.89,14.74,10.62,10.62,0,0,1-7,.43c-9-2.55-32.39-10.39-44.07-25.33a4,4,0,0,1-.84-2.22h0v-5Z" transform="translate(-26.31 -24.37)"/></g><g id="Desk"><path class="cls-11" d="M210.12,414.16a5.23,5.23,0,0,0,4.72,0c1.31-.75,1.31-2,0-2.72a5.17,5.17,0,0,0-4.72,0C208.82,412.19,208.82,413.41,210.12,414.16Z" transform="translate(-26.31 -24.37)"/><rect class="cls-11" x="209.14" y="332.37" width="6.68" height="80.36" transform="translate(398.64 720.72) rotate(180)"/><path class="cls-8" d="M286,369.59a5.23,5.23,0,0,0,4.72,0c1.31-.76,1.31-2,0-2.73a5.23,5.23,0,0,0-4.72,0C284.73,367.61,284.73,368.83,286,369.59Z" transform="translate(-26.31 -24.37)"/><rect class="cls-8" x="285.05" y="287.79" width="6.68" height="80.36" transform="translate(550.46 631.57) rotate(180)"/><path class="cls-11" d="M85.68,342.06a5.17,5.17,0,0,0,4.72,0c1.31-.75,1.31-2,0-2.72a5.23,5.23,0,0,0-4.72,0C84.38,340.09,84.38,341.31,85.68,342.06Z" transform="translate(-26.31 -24.37)"/><rect class="cls-11" x="84.7" y="260.27" width="6.68" height="80.36" transform="translate(149.76 576.52) rotate(180)"/><path class="cls-12" d="M167.29,281.25a4.64,4.64,0,0,0,4.23,0,1.29,1.29,0,0,0,0-2.44,4.64,4.64,0,0,0-4.23,0A1.29,1.29,0,0,0,167.29,281.25Z" transform="translate(-26.31 -24.37)"/><rect class="cls-12" x="166.41" y="212.9" width="5.99" height="67.06" transform="translate(312.49 468.49) rotate(180)"/><polygon class="cls-8" points="265.42 250.1 265.42 266.09 186.16 311.85 186.16 295.87 265.42 250.1"/><polygon class="cls-11" points="58.39 222.1 186.16 295.87 186.16 311.85 58.39 238.08 58.39 222.1"/><polygon class="cls-12" points="137.65 176.34 265.42 250.1 186.16 295.87 58.39 222.1 137.65 176.34"/><path class="cls-13" d="M164.36,279.79l-58.77-33.93a.93.93,0,0,1,0-1.61l11.31-6.53a1,1,0,0,1,.93,0l58.77,33.93a.93.93,0,0,1,0,1.6l-11.32,6.54A.94.94,0,0,1,164.36,279.79Z" transform="translate(-26.31 -24.37)"/><path class="cls-3" d="M220.63,306.5l-34.28-20a.51.51,0,0,1,0-.88l38-23.42Z" transform="translate(-26.31 -24.37)"/><path class="cls-14" d="M220.63,306.5l-34.28-20a.51.51,0,0,1,0-.88l38-23.42Z" transform="translate(-26.31 -24.37)"/><polygon class="cls-3" points="194.32 282.12 232.54 259.99 232.54 249.94 194.32 271.97 194.32 282.12"/><polygon class="cls-13" points="194.32 282.12 232.54 259.99 232.54 249.94 194.32 271.97 194.32 282.12"/><path class="cls-15" d="M251.39,285.92l-15.09,8.71c-1,.58-1.82,0-1.82-1.37h0a4.36,4.36,0,0,1,1.82-3.47l15.09-8.72c1-.58,1.82,0,1.82,1.38h0A4.33,4.33,0,0,1,251.39,285.92Z" transform="translate(-26.31 -24.37)"/><path class="cls-15" d="M232.27,294.54a4.61,4.61,0,0,1-2.1,3.63c-1.16.67-2.1.13-2.1-1.21a4.63,4.63,0,0,1,2.1-3.63C231.33,292.66,232.27,293.2,232.27,294.54Z" transform="translate(-26.31 -24.37)"/><path class="cls-3" d="M220.63,296.35,186.49,280.3a.52.52,0,0,1-.05-.91l36.63-21.78a1.42,1.42,0,0,1,1.37-.05l34.41,16.75Z" transform="translate(-26.31 -24.37)"/><polygon class="cls-1" points="162.37 256.96 162.37 261.27 190.66 277.27 190.66 270.25 162.37 256.96"/><polygon class="cls-2" points="190.66 277.27 194.32 274.99 194.32 271.97 190.66 270.25 190.66 277.27"/><path class="cls-3" d="M186.19,276.14V265h62.33c.21,0,6.9,3.49,9.86,5a.85.85,0,0,1,0,1.49L221.47,292.4a1.88,1.88,0,0,1-1.71.05Z" transform="translate(-26.31 -24.37)"/><path class="cls-14" d="M186.19,276.14V265h62.33c.21,0,6.9,3.49,9.86,5a.85.85,0,0,1,0,1.49L221.47,292.4a1.88,1.88,0,0,1-1.71.05Z" transform="translate(-26.31 -24.37)"/><polygon class="cls-2" points="194.32 265.39 229.68 245.5 229.68 241.18 194.32 259.99 194.32 265.39"/><polygon class="cls-3" points="159.88 251.76 169.13 246.35 159.88 240.61 159.88 251.76"/><polygon class="cls-10" points="159.88 251.76 169.13 246.35 159.88 240.61 159.88 251.76"/><polygon class="cls-1" points="165.72 244.24 165.72 250.39 194.32 265.39 194.32 259.99 165.72 244.24"/><path class="cls-3" d="M186.19,265l33.25,19.82a2.48,2.48,0,0,0,2.42.07l36.65-19.2a.85.85,0,0,0,.06-1.46l-33.46-21.75Z" transform="translate(-26.31 -24.37)"/><polygon class="cls-3" points="173.69 217.22 173.69 219.52 158.97 227.83 158.97 225.53 173.69 217.22"/><polygon class="cls-16" points="173.69 217.22 173.69 219.52 158.97 227.83 158.97 225.53 173.69 217.22"/><polygon class="cls-3" points="125.38 206.12 158.97 225.53 158.97 227.83 125.38 208.42 125.38 206.12"/><polygon class="cls-17" points="125.38 206.12 158.97 225.53 158.97 227.83 125.38 208.42 125.38 206.12"/><polygon class="cls-3" points="140.1 197.81 173.69 217.22 158.97 225.53 125.38 206.12 140.1 197.81"/><polygon class="cls-18" points="140.1 197.81 173.69 217.22 158.97 225.53 125.38 206.12 140.1 197.81"/><path class="cls-2" d="M173.05,263.22l1.5.87v2.74a5.31,5.31,0,0,0,2.75-.75l.11-.07a3,3,0,0,0,1.38-1.89,1.72,1.72,0,0,0,.08-.52v-3.74Z" transform="translate(-26.31 -24.37)"/><path class="cls-15" d="M107.7,162.19l.12-.07a5.41,5.41,0,0,1,2.75-.75h0a1.65,1.65,0,0,1,.87.23l64.81,37.26a5.25,5.25,0,0,1,2.62,4.54v56.46l-5.82,3.36-61.56-35.39a5.25,5.25,0,0,1-2.62-4.54V164.75h-2.62A3,3,0,0,1,107.7,162.19Z" transform="translate(-26.31 -24.37)"/><path class="cls-2" d="M178.31,201.05a5.25,5.25,0,0,1,.56,2.35v56.46l-5.82,3.36L170.87,262v-56.3Z" transform="translate(-26.31 -24.37)"/><path class="cls-19" d="M176.25,261.37v3.75a1.72,1.72,0,0,1-2.58,1.48l-64.8-37.26a5.25,5.25,0,0,1-2.62-4.54V221Z" transform="translate(-26.31 -24.37)"/><path class="cls-19" d="M106.25,164.6a1.72,1.72,0,0,1,2.58-1.49l64.8,37.27a5.23,5.23,0,0,1,2.62,4.54v56.45l-70-40.41" transform="translate(-26.31 -24.37)"/><polygon class="cls-2" points="117.24 206.11 104.9 199.87 107.92 197.81 119.81 204.07 117.24 206.11"/><path class="cls-15" d="M131.21,224.24l-7.14,28.38a2.06,2.06,0,0,0,1,2.3l14.76,8.3s4.59-32.3,3.74-32.73Z" transform="translate(-26.31 -24.37)"/><polygon class="cls-19" points="121.29 232.49 116.21 229.42 115.23 236.31 121.29 232.49"/><path class="cls-2" d="M143.56,230.49,139,261.67a1.47,1.47,0,0,0,2.29,1.43l5.86-4a1.55,1.55,0,0,0,.69-1.29v-.6a.45.45,0,0,0-.71-.37l-5.56,3.81,4.58-32.23Z" transform="translate(-26.31 -24.37)"/><path class="cls-2" d="M143.24,214.6c0,2.73-1.92,3.84-4.29,2.47a9.49,9.49,0,0,1-4.28-7.42c0-2.73,1.92-3.84,4.28-2.47A9.47,9.47,0,0,1,143.24,214.6Z" transform="translate(-26.31 -24.37)"/></g><g id="Files"><polygon class="cls-20" points="68.63 345.05 107.9 322.56 76.72 305.37 38.82 327.68 68.63 345.05"/><path class="cls-2" d="M96.3,365.67a.41.41,0,0,1-.18-.05l-22.8-13.29a.35.35,0,1,1,.35-.6L96.47,365a.35.35,0,0,1,.13.48A.35.35,0,0,1,96.3,365.67Z" transform="translate(-26.31 -24.37)"/><path class="cls-2" d="M100,363.4a.34.34,0,0,1-.17,0L77.06,350.06a.34.34,0,0,1-.12-.47.34.34,0,0,1,.47-.13l22.81,13.29a.35.35,0,0,1,.12.48A.34.34,0,0,1,100,363.4Z" transform="translate(-26.31 -24.37)"/><path class="cls-2" d="M103.68,361.23a.33.33,0,0,1-.17,0L80.7,347.9a.35.35,0,0,1-.12-.48.34.34,0,0,1,.47-.13l22.81,13.3a.34.34,0,0,1-.18.64Z" transform="translate(-26.31 -24.37)"/><path class="cls-2" d="M107.43,359a.41.41,0,0,1-.18-.05l-22.8-13.29a.36.36,0,0,1-.13-.48.34.34,0,0,1,.48-.12l22.8,13.29a.34.34,0,0,1,.13.47A.35.35,0,0,1,107.43,359Z" transform="translate(-26.31 -24.37)"/><path class="cls-2" d="M111.17,356.7a.34.34,0,0,1-.17-.05L88.19,343.36a.35.35,0,0,1-.12-.48.33.33,0,0,1,.47-.12l22.81,13.29a.34.34,0,0,1,.12.47A.35.35,0,0,1,111.17,356.7Z" transform="translate(-26.31 -24.37)"/><path class="cls-2" d="M114.92,354.43a.41.41,0,0,1-.18-.05l-22.8-13.29a.35.35,0,1,1,.35-.6l22.8,13.29a.34.34,0,0,1,.13.47A.36.36,0,0,1,114.92,354.43Z" transform="translate(-26.31 -24.37)"/><path class="cls-2" d="M118.66,352.16a.34.34,0,0,1-.17-.05L95.68,338.82a.35.35,0,0,1-.12-.48.34.34,0,0,1,.47-.12l22.81,13.29a.34.34,0,0,1,.12.47A.33.33,0,0,1,118.66,352.16Z" transform="translate(-26.31 -24.37)"/><path class="cls-2" d="M122.41,349.89a.41.41,0,0,1-.18-.05l-22.8-13.29a.35.35,0,1,1,.35-.6l22.8,13.29a.35.35,0,0,1,.13.48A.35.35,0,0,1,122.41,349.89Z" transform="translate(-26.31 -24.37)"/><path class="cls-2" d="M126.15,347.62a.34.34,0,0,1-.17-.05l-22.81-13.29a.35.35,0,0,1-.12-.48.34.34,0,0,1,.47-.12L126.33,347a.35.35,0,0,1,.12.48A.34.34,0,0,1,126.15,347.62Z" transform="translate(-26.31 -24.37)"/><polygon class="cls-21" points="38.93 327.56 68.74 344.94 68.74 371.64 38.93 355.18 38.93 327.56"/><polygon class="cls-15" points="68.74 344.94 108.01 322.44 108.01 348.84 68.74 371.64 68.74 344.94"/><polygon class="cls-2" points="62.33 347.55 68.74 351.28 82.61 343.34 68.74 353.31 62.33 347.55"/><polygon class="cls-2" points="62.33 356.84 68.74 360.58 76.57 356.09 68.74 362.61 62.33 356.84"/><polygon class="cls-2" points="72.47 352.54 77.37 354 81.12 348.33 72.47 352.54"/><polygon class="cls-20" points="72.47 352.54 87.26 344.11 79.86 352.54 72.47 352.54"/><polygon class="cls-2" points="94.61 334.44 98.08 335.47 100.73 331.46 94.61 334.44"/><polygon class="cls-20" points="94.61 334.44 105.08 328.48 99.84 334.44 94.61 334.44"/><polygon class="cls-2" points="87.12 354.29 90.59 355.32 93.24 351.31 87.12 354.29"/><polygon class="cls-20" points="87.12 354.29 97.59 348.33 92.35 354.29 87.12 354.29"/><path class="cls-3" d="M155.73,430.78l-34.28-20a.51.51,0,0,1,0-.88l38-23.42Z" transform="translate(-26.31 -24.37)"/><path class="cls-14" d="M155.73,430.78l-34.28-20a.51.51,0,0,1,0-.88l38-23.42Z" transform="translate(-26.31 -24.37)"/><polygon class="cls-3" points="129.41 406.4 167.63 384.28 167.63 374.22 129.41 396.25 129.41 406.4"/><polygon class="cls-13" points="129.41 406.4 167.63 384.28 167.63 374.22 129.41 396.25 129.41 406.4"/><path class="cls-15" d="M186.49,410.2l-15.09,8.72c-1,.58-1.82,0-1.82-1.38h0a4.33,4.33,0,0,1,1.82-3.47l15.09-8.71c1-.58,1.82,0,1.82,1.37h0A4.36,4.36,0,0,1,186.49,410.2Z" transform="translate(-26.31 -24.37)"/><path class="cls-15" d="M167.36,418.82a4.65,4.65,0,0,1-2.1,3.64c-1.15.67-2.09.12-2.09-1.21a4.66,4.66,0,0,1,2.09-3.64C166.42,416.94,167.36,417.48,167.36,418.82Z" transform="translate(-26.31 -24.37)"/><path class="cls-3" d="M155.73,420.63l-34.15-16.05a.51.51,0,0,1,0-.9l36.62-21.78a1.44,1.44,0,0,1,1.38-.06L194,398.59Z" transform="translate(-26.31 -24.37)"/><polygon class="cls-1" points="97.47 381.24 97.47 385.56 125.76 401.56 125.76 394.54 97.47 381.24"/><polygon class="cls-2" points="125.76 401.56 129.41 399.27 129.41 396.25 125.76 394.54 125.76 401.56"/><path class="cls-3" d="M121.29,400.42V389.27h62.32c.22,0,6.91,3.48,9.87,5a.86.86,0,0,1,0,1.5l-36.93,20.88a1.82,1.82,0,0,1-1.71.05Z" transform="translate(-26.31 -24.37)"/><path class="cls-14" d="M121.29,400.42V389.27h62.32c.22,0,6.91,3.48,9.87,5a.86.86,0,0,1,0,1.5l-36.93,20.88a1.82,1.82,0,0,1-1.71.05Z" transform="translate(-26.31 -24.37)"/><polygon class="cls-2" points="129.41 389.67 164.78 369.78 164.78 365.46 129.41 384.28 129.41 389.67"/><polygon class="cls-3" points="94.98 376.05 104.22 370.64 94.98 364.89 94.98 376.05"/><polygon class="cls-10" points="94.98 376.05 104.22 370.64 94.98 364.89 94.98 376.05"/><polygon class="cls-1" points="100.81 368.52 100.81 374.68 129.41 389.67 129.41 384.28 100.81 368.52"/><path class="cls-3" d="M121.29,389.27l33.25,19.81a2.44,2.44,0,0,0,2.41.07L193.61,390a.85.85,0,0,0,0-1.46l-33.45-21.74Z" transform="translate(-26.31 -24.37)"/><path class="cls-3" d="M155.73,405.62l-34.28-20a.51.51,0,0,1,0-.88l38-23.42Z" transform="translate(-26.31 -24.37)"/><path class="cls-14" d="M155.73,405.62l-34.28-20a.51.51,0,0,1,0-.88l38-23.42Z" transform="translate(-26.31 -24.37)"/><polygon class="cls-3" points="129.41 381.24 167.63 359.11 167.63 349.06 129.41 371.09 129.41 381.24"/><polygon class="cls-13" points="129.41 381.24 167.63 359.11 167.63 349.06 129.41 371.09 129.41 381.24"/><path class="cls-15" d="M186.49,385l-15.09,8.71c-1,.58-1.82,0-1.82-1.37h0a4.33,4.33,0,0,1,1.82-3.47l15.09-8.72c1-.58,1.82,0,1.82,1.38h0A4.36,4.36,0,0,1,186.49,385Z" transform="translate(-26.31 -24.37)"/><path class="cls-15" d="M167.36,393.66a4.61,4.61,0,0,1-2.1,3.63c-1.15.67-2.09.13-2.09-1.21a4.64,4.64,0,0,1,2.09-3.63C166.42,391.78,167.36,392.32,167.36,393.66Z" transform="translate(-26.31 -24.37)"/><path class="cls-3" d="M155.73,395.47l-34.15-16.05a.52.52,0,0,1,0-.91l36.62-21.78a1.44,1.44,0,0,1,1.38-.05L194,373.43Z" transform="translate(-26.31 -24.37)"/><polygon class="cls-1" points="97.47 356.08 97.47 360.39 125.76 376.39 125.76 369.37 97.47 356.08"/><polygon class="cls-2" points="125.76 376.39 129.41 374.11 129.41 371.09 125.76 369.37 125.76 376.39"/><path class="cls-3" d="M121.34,374.53V363.37h62.32c.21,0,6.9,3.49,9.86,5a.85.85,0,0,1,0,1.49l-36.94,20.89a1.86,1.86,0,0,1-1.7,0Z" transform="translate(-26.31 -24.37)"/><path class="cls-14" d="M121.34,374.53V363.37h62.32c.21,0,6.9,3.49,9.86,5a.85.85,0,0,1,0,1.49l-36.94,20.89a1.86,1.86,0,0,1-1.7,0Z" transform="translate(-26.31 -24.37)"/><polygon class="cls-2" points="129.46 363.78 164.82 343.89 164.82 339.57 129.46 358.38 129.46 363.78"/><polygon class="cls-3" points="95.02 350.15 104.27 344.74 95.02 339 95.02 350.15"/><polygon class="cls-10" points="95.02 350.15 104.27 344.74 95.02 339 95.02 350.15"/><polygon class="cls-1" points="100.86 342.63 100.86 348.78 129.46 363.78 129.46 358.38 100.86 342.63"/><path class="cls-3" d="M121.34,363.37l33.25,19.82a2.46,2.46,0,0,0,2.41.07l36.66-19.2a.85.85,0,0,0,.05-1.46l-33.46-21.75Z" transform="translate(-26.31 -24.37)"/><path class="cls-3" d="M155.77,379.72l-34.27-20a.51.51,0,0,1,0-.88l38-23.41Z" transform="translate(-26.31 -24.37)"/><path class="cls-14" d="M155.77,379.72l-34.27-20a.51.51,0,0,1,0-.88l38-23.41Z" transform="translate(-26.31 -24.37)"/><polygon class="cls-3" points="129.46 355.35 167.68 333.22 167.68 323.16 129.46 345.2 129.46 355.35"/><polygon class="cls-13" points="129.46 355.35 167.68 333.22 167.68 323.16 129.46 345.2 129.46 355.35"/><path class="cls-15" d="M186.54,359.15l-15.1,8.71c-1,.58-1.81,0-1.81-1.37h0a4.37,4.37,0,0,1,1.81-3.48l15.1-8.71c1-.58,1.81,0,1.81,1.37h0A4.37,4.37,0,0,1,186.54,359.15Z" transform="translate(-26.31 -24.37)"/><path class="cls-15" d="M167.41,367.77a4.64,4.64,0,0,1-2.1,3.63c-1.16.67-2.1.13-2.1-1.21a4.65,4.65,0,0,1,2.1-3.64C166.47,365.89,167.41,366.43,167.41,367.77Z" transform="translate(-26.31 -24.37)"/><path class="cls-3" d="M155.77,369.57l-34.14-16a.52.52,0,0,1,0-.91l36.62-21.78a1.47,1.47,0,0,1,1.38-.06L194,347.54Z" transform="translate(-26.31 -24.37)"/><polygon class="cls-1" points="97.52 330.18 97.52 334.5 125.81 350.5 125.81 343.48 97.52 330.18"/><polygon class="cls-2" points="125.81 350.5 129.46 348.21 129.46 345.2 125.81 343.48 125.81 350.5"/><polygon class="cls-21" points="128.51 316.21 167.78 293.72 136.59 276.53 98.7 298.84 128.51 316.21"/><path class="cls-2" d="M156.17,336.83a.35.35,0,0,1-.17,0L133.2,323.5a.35.35,0,0,1-.13-.48.34.34,0,0,1,.47-.12l22.81,13.29a.34.34,0,0,1,.13.47A.37.37,0,0,1,156.17,336.83Z" transform="translate(-26.31 -24.37)"/><path class="cls-2" d="M159.92,334.56a.33.33,0,0,1-.17,0l-22.81-13.29a.36.36,0,0,1-.13-.48.34.34,0,0,1,.48-.12l22.8,13.29a.34.34,0,0,1-.17.64Z" transform="translate(-26.31 -24.37)"/><path class="cls-2" d="M163.56,332.4a.34.34,0,0,1-.17,0l-22.81-13.29a.34.34,0,0,1-.12-.47.34.34,0,0,1,.47-.13l22.81,13.29a.35.35,0,0,1,.12.48A.34.34,0,0,1,163.56,332.4Z" transform="translate(-26.31 -24.37)"/><path class="cls-2" d="M167.31,330.13a.41.41,0,0,1-.18-.05l-22.8-13.29a.34.34,0,0,1-.13-.47.35.35,0,0,1,.48-.13l22.8,13.29a.36.36,0,0,1,.13.48A.36.36,0,0,1,167.31,330.13Z" transform="translate(-26.31 -24.37)"/><path class="cls-2" d="M171.05,327.86a.26.26,0,0,1-.17-.05l-22.81-13.29a.34.34,0,0,1-.12-.47.34.34,0,0,1,.47-.13l22.81,13.29a.35.35,0,0,1,.12.48A.34.34,0,0,1,171.05,327.86Z" transform="translate(-26.31 -24.37)"/><path class="cls-2" d="M174.79,325.59a.28.28,0,0,1-.17,0l-22.8-13.29a.34.34,0,0,1-.13-.47.36.36,0,0,1,.48-.13L175,324.94a.36.36,0,0,1,.13.48A.37.37,0,0,1,174.79,325.59Z" transform="translate(-26.31 -24.37)"/><path class="cls-2" d="M178.54,323.32a.26.26,0,0,1-.17-.05L155.56,310a.34.34,0,0,1-.13-.47.36.36,0,0,1,.48-.13l22.8,13.29a.35.35,0,0,1,.13.48A.34.34,0,0,1,178.54,323.32Z" transform="translate(-26.31 -24.37)"/><path class="cls-2" d="M182.29,321.05a.39.39,0,0,1-.18,0l-22.8-13.3a.34.34,0,0,1-.13-.47.36.36,0,0,1,.48-.13l22.8,13.29a.36.36,0,0,1,.13.48A.36.36,0,0,1,182.29,321.05Z" transform="translate(-26.31 -24.37)"/><path class="cls-2" d="M186,318.78a.39.39,0,0,1-.18,0l-22.8-13.29a.35.35,0,1,1,.35-.61l22.8,13.29a.35.35,0,0,1,.13.48A.34.34,0,0,1,186,318.78Z" transform="translate(-26.31 -24.37)"/><polygon class="cls-19" points="98.81 298.73 128.62 316.1 128.62 342.8 98.81 326.34 98.81 298.73"/><polygon class="cls-15" points="128.62 316.1 167.89 293.61 167.89 320 128.62 342.8 128.62 316.1"/><polygon class="cls-2" points="122.2 318.71 128.62 322.45 142.49 314.51 128.62 324.48 122.2 318.71"/><polygon class="cls-2" points="122.2 328.01 128.62 331.74 136.45 327.26 128.62 333.77 122.2 328.01"/><polygon class="cls-2" points="132.34 323.7 137.25 325.16 140.99 319.49 132.34 323.7"/><polygon class="cls-20" points="132.34 323.7 147.14 315.28 139.74 323.7 132.34 323.7"/><polygon class="cls-2" points="154.48 305.6 157.95 306.64 160.6 302.62 154.48 305.6"/><polygon class="cls-20" points="154.48 305.6 164.95 299.64 159.72 305.6 154.48 305.6"/><polygon class="cls-2" points="146.99 325.45 150.46 326.49 153.11 322.47 146.99 325.45"/><polygon class="cls-20" points="146.99 325.45 157.46 319.49 152.23 325.45 146.99 325.45"/><polygon class="cls-2" points="109.51 326.29 106.96 327.05 105.02 324.1 109.51 326.29"/><polygon class="cls-20" points="109.51 326.29 101.82 321.91 105.67 326.29 109.51 326.29"/><polygon class="cls-2" points="119.51 315.81 116.04 316.84 113.39 312.82 119.51 315.81"/><polygon class="cls-20" points="119.51 315.81 109.04 309.84 114.28 315.81 119.51 315.81"/></g><g id="Character"><polygon class="cls-11" points="363.66 369.94 360.32 368.55 361.19 364.5 363.66 369.94"/><polygon class="cls-12" points="367.41 359.06 368.83 365.42 363.66 369.94 361.19 364.5 367.41 359.06"/><path class="cls-8" d="M379.46,376.85a39.7,39.7,0,0,0-2.1,8.14,20.49,20.49,0,0,1-5.26,10.51c-2.43,2.24-6.77,7.4.76,8.32,7.79,1,14.32-5.48,14.42-9.05s1.05-6.37,3-8,3.47-3.3,3.47-3.3-3.47-12.46-6.44-11.76S379.46,376.85,379.46,376.85Z" transform="translate(-26.31 -24.37)"/><path class="cls-12" d="M382.47,364.66c-2.24-3.38-4.77-7.36-6.81-11-4.8-8.64-12.07-22.36-19.2-25.1V270.31l-27.38-1.26s-9,31.91,3.79,57.56c9.14,18.37,29,37.52,39.49,46.9C375.64,373,381.64,371.11,382.47,364.66Z" transform="translate(-26.31 -24.37)"/><path class="cls-22" d="M388,372.69s-2.5-3.45-5.54-8c-.83,6.45-6.83,8.31-10.11,8.85,4.16,3.71,6.87,5.9,6.87,5.9S388.14,380.65,388,372.69Z" transform="translate(-26.31 -24.37)"/><path class="cls-11" d="M331.84,324.36l7.34-36.22s-5.48-3.2-5.48-11.66c0,0-.69,8.16,3,14.06l-6.31,30.28C330.83,322,331.32,323.19,331.84,324.36Z" transform="translate(-26.31 -24.37)"/><path class="cls-11" d="M356.46,328.53v-2.1L353,328.67l-6.38,9.87-.6,7.75c2.51,3.09,5.13,6.09,7.74,8.93l.52-12.7,4.8-12.54A11.42,11.42,0,0,0,356.46,328.53Z" transform="translate(-26.31 -24.37)"/><path class="cls-12" d="M332.05,303" transform="translate(-26.31 -24.37)"/><polygon class="cls-11" points="304.96 400.3 301.58 398.38 304.96 393.9 304.96 400.3"/><polygon class="cls-12" points="309.88 391.7 309.88 397.37 304.96 400.3 304.96 393.9 309.88 391.7"/><path class="cls-8" d="M325.51,404.06s-1.92-.78-3.75,5.89-9.41,11-11.33,12.16-7,6,0,8.5,15.91-1.18,18-5.39,3.16-6.77,7.75-9.14v-8.51c0-1.64-1.72-2.83-2.81-3.11S325.51,404.06,325.51,404.06Z" transform="translate(-26.31 -24.37)"/><path class="cls-12" d="M364.55,269.05l-30.85-2.17v9.6c0,8.46,5.48,11.66,5.48,11.66l-9.33,46a52.44,52.44,0,0,0-.92,6.72l-4.05,57.72a11.72,11.72,0,0,0,11.31,2.3c2.1-6.43,5.68-17.17,9.9-28.91,5.08-14.17,5.31-24,5.11-28a9.09,9.09,0,0,1,.73-4.09c1.68-3.9,5.77-13.38,12.62-29.37C377.31,280.81,364.55,269.05,364.55,269.05Z" transform="translate(-26.31 -24.37)"/><path class="cls-22" d="M324.88,398.62l-.58,8.29a5.45,5.45,0,0,0,5,2.58c3.66,0,4.94-2.37,4.94-2.37s.73-2.31,2-6.2A11.72,11.72,0,0,1,324.88,398.62Z" transform="translate(-26.31 -24.37)"/><path class="cls-3" d="M336.77,224.62s-8.62.33-11.63,6.65-7.31,19.09-7.31,19.09l11.56,2.6Z" transform="translate(-26.31 -24.37)"/><path class="cls-16" d="M336.77,224.62s-8.62.33-11.63,6.65-7.31,19.09-7.31,19.09l11.56,2.6Z" transform="translate(-26.31 -24.37)"/><path class="cls-3" d="M355.2,225.92l9.35,1.62v21l-2.92,11.16s.55,6,2.92,9.32c0,0-16.64,12.62-35.47,0,0,0,.73-11,.73-14.08,0,0-6.38-3.84-5.75-9.69s12.71-20.66,12.71-20.66l6.64-.09Z" transform="translate(-26.31 -24.37)"/><path class="cls-17" d="M355.2,225.92l9.35,1.62v21l-2.92,11.16s.55,6,2.92,9.32c0,0-16.64,12.62-35.47,0,0,0,.73-11,.73-14.08,0,0-6.38-3.84-5.75-9.69s12.71-20.66,12.71-20.66l6.64-.09Z" transform="translate(-26.31 -24.37)"/><path class="cls-8" d="M339.13,183s-8.08-2.8-10.05,5.47,4.11,16.29-5,19c0,0,5.37,4.47,10.09-3.87l4,17s0,.93-1.41,1.64c0,0,23,5.1,27.35-6.35a4.88,4.88,0,0,1,1,5s6.77-2.74,4.87-11.51c0,0,5.35-.15,6.62-4.51,0,0-8.56.41-8.51-9,.06-10.92-5.69-9.34-5.69-9.34S355.37,176.06,339.13,183Z" transform="translate(-26.31 -24.37)"/><path class="cls-22" d="M343.41,217.24v7.29s-6.55,11.29-4,12c4.88,1.37,15.74-10.63,15.74-10.63V210.5Z" transform="translate(-26.31 -24.37)"/><path class="cls-23" d="M355.07,208.06v.43c-2.63,10.36-9.46,12.62-11.66,13.15l-.08-16,11.4-.05Z" transform="translate(-26.31 -24.37)"/><path class="cls-22" d="M344.15,185c-4.35.36-13.4,3.54-13.54,15s1.62,20.23,7.57,20.59,19.25-5,19.86-19.9S348.4,184.63,344.15,185Z" transform="translate(-26.31 -24.37)"/><polygon class="cls-23" points="312.33 180.23 312.44 186.97 308.48 185.82 312.33 180.23"/><path class="cls-8" d="M344.57,204.43a1.38,1.38,0,0,1-2.75,0,1.39,1.39,0,0,1,1.36-1.4A1.37,1.37,0,0,1,344.57,204.43Z" transform="translate(-26.31 -24.37)"/><path class="cls-8" d="M335.53,203.6a1.38,1.38,0,1,1-1.4-1.36A1.37,1.37,0,0,1,335.53,203.6Z" transform="translate(-26.31 -24.37)"/><path class="cls-3" d="M332.44,200.78l2.66-1.63s-1-1.06-2.06-.4A1.87,1.87,0,0,0,332.44,200.78Z" transform="translate(-26.31 -24.37)"/><path class="cls-8" d="M332.44,200.78l2.66-1.63s-1-1.06-2.06-.4A1.87,1.87,0,0,0,332.44,200.78Z" transform="translate(-26.31 -24.37)"/><path class="cls-8" d="M351.33,203.81s-.27,4.83,2.51,4.83h5.45v-9.21c0-10.33-7.83-21.12-24.5-12.59C334.79,186.84,334,200.63,351.33,203.81Z" transform="translate(-26.31 -24.37)"/><path class="cls-22" d="M353.82,208.07a6.93,6.93,0,0,1,.6-3,3.24,3.24,0,0,1,2.83-2.18c3.25-.05,3.65,3.08,3.6,4.19-.15,2.92-2.54,6.05-7,6.12Z" transform="translate(-26.31 -24.37)"/><path class="cls-23" d="M342.26,213.48a1.13,1.13,0,1,1-1.13-1.13A1.13,1.13,0,0,1,342.26,213.48Z" transform="translate(-26.31 -24.37)"/><path class="cls-3" d="M364.55,227.54s-7.68,2.79-4.32,16.23,6.59,24.69,6.59,24.69l-13.37,8s4.86,2.33,3.77,10.9c0,0,17.48-4.32,21.53-7.26s2.67-11.53,1.71-16.26-5.48-23.93-6.17-26.54S371.56,228.76,364.55,227.54Z" transform="translate(-26.31 -24.37)"/><path class="cls-16" d="M364.55,227.54s-7.68,2.79-4.32,16.23,6.59,24.69,6.59,24.69l-13.37,8s4.86,2.33,3.77,10.9c0,0,17.48-4.32,21.53-7.26s2.67-11.53,1.71-16.26-5.48-23.93-6.17-26.54S371.56,228.76,364.55,227.54Z" transform="translate(-26.31 -24.37)"/><path class="cls-3" d="M366.82,268.46a12.16,12.16,0,0,1,7.54,1.85,10.79,10.79,0,0,0-8.12-3.88Z" transform="translate(-26.31 -24.37)"/><path class="cls-3" d="M311.71,300.69l-34.28-20a.51.51,0,0,1,0-.88l38-23.42Z" transform="translate(-26.31 -24.37)"/><path class="cls-14" d="M311.71,300.69l-34.28-20a.51.51,0,0,1,0-.88l38-23.42Z" transform="translate(-26.31 -24.37)"/><polygon class="cls-3" points="285.39 276.31 323.61 254.19 323.61 244.13 285.39 266.16 285.39 276.31"/><polygon class="cls-13" points="285.39 276.31 323.61 254.19 323.61 244.13 285.39 266.16 285.39 276.31"/><path class="cls-15" d="M342.47,280.11l-15.09,8.72c-1,.58-1.82,0-1.82-1.38h0a4.33,4.33,0,0,1,1.82-3.47l15.09-8.71c1-.58,1.82,0,1.82,1.37h0A4.36,4.36,0,0,1,342.47,280.11Z" transform="translate(-26.31 -24.37)"/><path class="cls-15" d="M323.34,288.73a4.65,4.65,0,0,1-2.1,3.64c-1.16.67-2.09.12-2.09-1.21a4.64,4.64,0,0,1,2.09-3.64C322.4,286.85,323.34,287.39,323.34,288.73Z" transform="translate(-26.31 -24.37)"/><path class="cls-3" d="M311.71,290.54l-34.15-16.05a.51.51,0,0,1,0-.9l36.62-21.78a1.44,1.44,0,0,1,1.38-.06l34.41,16.75Z" transform="translate(-26.31 -24.37)"/><polygon class="cls-1" points="253.45 251.15 253.45 255.47 281.74 271.47 281.74 264.44 253.45 251.15"/><polygon class="cls-2" points="281.74 271.47 285.39 269.18 285.39 266.16 281.74 264.44 281.74 271.47"/><path class="cls-22" d="M357.22,287.38s-15,3.23-16.39,3.57-8.64,2.61-14.61,1.3l14.75-8.5s-7.53-1.84-6.45-4.18c.41-.89,14.4-.41,14.4-.41l4.53-2.68S361.47,277.51,357.22,287.38Z" transform="translate(-26.31 -24.37)"/><path class="cls-3" d="M277.27,270.33V259.18h62.32c.22,0,6.91,3.48,9.87,5a.86.86,0,0,1,0,1.5l-36.93,20.88a1.82,1.82,0,0,1-1.71.05Z" transform="translate(-26.31 -24.37)"/><path class="cls-14" d="M277.27,270.33V259.18h62.32c.22,0,6.91,3.48,9.87,5a.86.86,0,0,1,0,1.5l-36.93,20.88a1.82,1.82,0,0,1-1.71.05Z" transform="translate(-26.31 -24.37)"/><polygon class="cls-2" points="285.39 259.58 320.76 239.69 320.76 235.38 285.39 254.19 285.39 259.58"/><polygon class="cls-3" points="250.96 245.96 260.2 240.55 250.96 234.8 250.96 245.96"/><polygon class="cls-10" points="250.96 245.96 260.2 240.55 250.96 234.8 250.96 245.96"/><polygon class="cls-1" points="256.79 238.43 256.79 244.59 285.39 259.58 285.39 254.19 256.79 238.43"/><path class="cls-3" d="M277.27,259.18,310.52,279a2.44,2.44,0,0,0,2.41.07l36.66-19.2a.85.85,0,0,0,.05-1.46l-33.45-21.74Z" transform="translate(-26.31 -24.37)"/><path class="cls-3" d="M311.71,275.53l-34.28-20a.51.51,0,0,1,0-.88l38-23.42Z" transform="translate(-26.31 -24.37)"/><path class="cls-14" d="M311.71,275.53l-34.28-20a.51.51,0,0,1,0-.88l38-23.42Z" transform="translate(-26.31 -24.37)"/><polygon class="cls-3" points="285.39 251.15 323.61 229.02 323.61 218.97 285.39 241 285.39 251.15"/><polygon class="cls-13" points="285.39 251.15 323.61 229.02 323.61 218.97 285.39 241 285.39 251.15"/><path class="cls-15" d="M342.47,255l-15.09,8.71c-1,.58-1.82,0-1.82-1.37h0a4.33,4.33,0,0,1,1.82-3.47l15.09-8.72c1-.58,1.82,0,1.82,1.38h0A4.36,4.36,0,0,1,342.47,255Z" transform="translate(-26.31 -24.37)"/><path class="cls-15" d="M323.34,263.57a4.61,4.61,0,0,1-2.1,3.63c-1.16.67-2.09.13-2.09-1.21a4.63,4.63,0,0,1,2.09-3.63C322.4,261.69,323.34,262.23,323.34,263.57Z" transform="translate(-26.31 -24.37)"/><path class="cls-3" d="M311.71,265.38l-34.15-16a.52.52,0,0,1,0-.91l36.62-21.78a1.44,1.44,0,0,1,1.38,0l34.41,16.75Z" transform="translate(-26.31 -24.37)"/><polygon class="cls-1" points="253.45 225.99 253.45 230.3 281.74 246.31 281.74 239.28 253.45 225.99"/><polygon class="cls-2" points="281.74 246.31 285.39 244.02 285.39 241 281.74 239.28 281.74 246.31"/></g></svg>